<svg width="172" height="173" viewBox="0 0 172 173" fill="none" xmlns="http://www.w3.org/2000/svg"><g opacity=".5" fill="#798594"><path d="M64.906 168.079l-.253 1.19 8.055 1.734 2.332-10.938-8.055-1.735-.254 1.19 6.695 1.441-.788 3.693-6.1-1.313-.25 1.173 6.1 1.314-.787 3.693-6.695-1.442zM52.034 158.838l-5.655 3.352 1.564.736 4.393-2.726.761 5.15 1.636.769-1.063-6.511 6-3.526-1.577-.742-4.774 2.9-.772-5.508-1.636-.769 1.123 6.875zM33.15 153.449l4.048 3.186 6.883-8.836-1.094-.861-2.91 3.736-2.943-2.315c-1.546-1.217-3.382-.788-4.502.651-1.033 1.326-.891 3.331.517 4.439zm6.18-1.815l-2.469 3.168-2.955-2.325c-.792-.624-.82-1.786-.131-2.669.59-.757 1.845-1.093 2.612-.49l2.942 2.316zM29.672 136.439l-7.7 6.356.88 1.078 8.626-7.119-4.515-5.526-.926.763 3.635 4.448zM9.612 124.784c1.424 2.937 4.745 3.698 7.676 2.262 2.917-1.428 4.367-4.525 2.943-7.463-1.424-2.937-4.786-3.784-7.703-2.356-2.931 1.436-4.34 4.62-2.916 7.557zm9.44-4.624c1.09 2.246-.186 4.457-2.413 5.547-2.242 1.098-4.76.746-5.848-1.5-1.082-2.232.144-4.543 2.386-5.641 2.227-1.09 4.794-.637 5.876 1.594zM8.964 102.193c-.419-1.874-2.08-2.721-3.85-2.353-1.801.375-2.798 2.118-2.466 3.733l1.101 5.343 10.965-2.281-.284-1.379-4.637.965-.484-2.351 3.969-4.209-.346-1.677-3.968 4.209zm-.361 4.275l-3.932.818-.817-3.964c-.242-1.176.698-1.927 1.622-2.119.94-.196 2.068.125 2.375 1.614l.752 3.651zM2.307 80.37l-1.216-.037-.247 8.236 11.179.336.247-8.237-1.215-.036-.206 6.845-3.774-.114.187-6.237-1.2-.036-.187 6.238-3.774-.114.206-6.845zM10.373 47.276l6.958 7.108-9.866-1.103-.969 2.001 10.046 4.915.607-1.253-8.523-4.17 10.015 1.088.649-1.339-7.03-7.25 8.522 4.168.614-1.267L11.35 45.26l-.977 2.016zM21.54 30.2c-2.158 2.448-1.592 5.823.846 7.993 2.426 2.16 5.827 2.317 7.985-.132 2.158-2.449 1.655-5.895-.77-8.055-2.439-2.17-5.903-2.256-8.061.193zm7.851 6.989c-1.65 1.872-4.169 1.536-6.021-.113-1.865-1.66-2.5-4.132-.85-6.005 1.64-1.86 4.232-1.608 6.097.051 1.852 1.65 2.414 4.206.774 6.067zM42.047 20.932c1.567-1.109 1.717-2.974.704-4.472-1.03-1.524-3.016-1.776-4.377-.847l-4.506 3.076 6.272 9.28 1.163-.794-2.652-3.924 1.982-1.353 5.387 2.056 1.414-.965-5.387-2.057zm-4.077 1.311l-2.25-3.327 3.344-2.282c.991-.677 2.04-.096 2.57.686.537.796.67 1.964-.585 2.821l-3.08 2.102zM59.596 6.405l-.43-1.138-7.699 2.936 3.949 10.463 7.7-2.935-.43-1.138-6.399 2.44-1.333-3.533 5.83-2.223-.423-1.123-5.83 2.223-1.334-3.533 6.399-2.439zM89.38 1.056l-2.67-.1-4.018 11.039 1.487.056 1.212-3.3 4.781.181.993 3.384 1.487.057L89.38 1.056zm-3.543 6.479l2.194-5.97 1.787 6.12-3.98-.15zM109.642 9.794c.843-.156 1.518-.828 1.755-1.658.505-1.77-.6-3.437-2.168-3.89l-4.796-1.383-3.071 10.754 5.319 1.535a3.148 3.148 0 003.894-2.158c.308-1.077.249-2.443-.933-3.2zm-4.221-5.38l3.474 1.002c.923.266 1.434 1.33 1.171 2.252-.268.939-1.215 1.399-2.137 1.133l-3.474-1.002.966-3.385zm1.594 9.568l-3.997-1.152 1.103-3.862 3.997 1.153c.922.266 1.39 1.483 1.126 2.406-.285 1-1.168 1.761-2.229 1.455zM128.319 11.965c-2.815-1.653-5.999-.442-7.639 2.38-1.632 2.808-1.118 6.19 1.697 7.843 2.815 1.652 6.081.49 7.713-2.318 1.64-2.822 1.043-6.252-1.771-7.905zm-5.283 9.088c-2.152-1.263-2.319-3.81-1.073-5.955 1.255-2.158 3.544-3.263 5.696-1.999 2.139 1.256 2.402 3.86 1.148 6.018-1.246 2.144-3.632 3.192-5.771 1.936zM147.15 27.029l-4.961 5.061c-1.165 1.189-3.14 1.283-4.333.1-1.183-1.17-1.13-3.167.035-4.355l4.962-5.062-1.001-.99-4.962 5.061c-1.769 1.806-1.635 4.618.047 6.284 1.683 1.666 4.482 1.758 6.252-.047l4.962-5.062-1.001-.99zM155.137 36.4l-1.098.69 2.028 3.26-8.386 5.27.736 1.181 8.386-5.269 2.036 3.275 1.098-.69-4.8-7.717zM163.718 71.33l-.142 2.262c-.105 1.121-.563 1.977-1.462 2.129-1.168.196-2.269-.965-2.464-2.522-.274-2.031 1.054-3.115 2.111-3.293l-.234-1.404c-1.814.305-3.568 2.045-3.15 4.943.334 2.394 2.167 4.049 3.982 3.743 1.893-.318 2.506-2.093 2.6-3.472l.142-2.262c.09-1.021.542-1.811 1.331-1.944 1.01-.17 2.059.578 2.33 2.203.292 1.752-.858 2.74-1.867 2.91l.236 1.421c1.768-.297 3.332-1.907 2.893-4.543-.363-2.178-2.078-3.707-3.829-3.412-1.83.308-2.409 1.898-2.477 3.24zM169.418 95.112l1.214.074.497-8.225-11.164-.681-.496 8.225 1.213.074.413-6.836 3.769.23-.376 6.229 1.198.073.376-6.229 3.769.23-.413 6.836zM161.097 109.669c-.525 1.848.53 3.391 2.26 3.918 1.759.537 3.465-.515 3.941-2.092l1.578-5.223-10.712-3.269-.408 1.348 4.53 1.382-.694 2.297-5.487 1.789-.495 1.638 5.487-1.788zm2.352-3.581l3.841 1.172-1.17 3.875c-.347 1.149-1.53 1.357-2.433 1.081-.918-.28-1.755-1.104-1.316-2.559l1.078-3.569zM158.004 131.957l-7.458-8.277 10.876 2.399.74-1.273-11.445-2.566-1.343 2.31 7.89 8.68.74-1.273zM141.926 134.933l8.461 7.312.905-1.057-8.462-7.313-.904 1.058zM132.257 149.113c-.627-1.669-.297-3.264.84-4.173 1.787-1.428 4.194-.423 5.634 1.396 1.439 1.82 1.712 4.51.074 5.819-1.662 1.329-3.106.844-4.297-.068l-1.163.929c1.509 1.416 3.849 2.106 6.312.138 2.312-1.848 2.201-5.16.186-7.707-2.025-2.56-5.023-3.564-7.535-1.556-1.537 1.229-2.602 3.493-1.238 6.171l1.187-.949zM118.253 164.287l.514 1.102 7.456-3.506-4.72-10.139-7.457 3.506.514 1.103 6.197-2.915 1.593 3.424-5.647 2.655.507 1.088 5.647-2.656 1.593 3.424-6.197 2.914zM104.508 163.865l-2.265-.036c-1.124-.053-1.998-.47-2.188-1.362-.247-1.158.864-2.314 2.411-2.581 2.015-.369 3.154.908 3.378 1.956l1.392-.3c-.384-1.799-2.196-3.471-5.072-2.917-2.375.446-3.947 2.356-3.564 4.155.4 1.878 2.198 2.407 3.579 2.437l2.265.036c1.023.042 1.832.457 1.999 1.239.213 1.002-.488 2.086-2.099 2.433-1.737.374-2.773-.729-2.987-1.73l-1.408.303c.374 1.752 2.049 3.241 4.661 2.679 2.159-.465 3.611-2.251 3.24-3.988-.387-1.815-1.999-2.319-3.342-2.324z"/></g></svg>