<svg width="123" height="40" viewBox="0 0 123 40" fill="none" xmlns="http://www.w3.org/2000/svg">
<g opacity="0.9">
<g clip-path="url(#clip0_3733_8100)">
<path d="M40.1019 29.5781H43.1765V22.8583H47.5735C51.9705 22.8583 54.1855 19.7826 54.1855 16.5397C54.1855 13.3972 51.9705 10.1208 47.5074 10.1208H40.0688V29.5781H40.1019ZM43.1765 19.9498V13.2969H47.5074C49.8216 13.2969 51.0448 14.935 51.0448 16.5732C51.0448 18.2113 49.8877 19.9163 47.5074 19.9163H43.1765V19.9498ZM62.6489 21.521C61.8555 21.1533 60.7975 20.9861 59.7727 20.9861C57.1609 20.9861 54.5492 22.4237 54.5492 25.5328C54.5492 28.9094 57.3262 29.8455 60.2686 29.8455C62.3183 29.8455 64.3019 29.3775 65.5913 28.876V19.7826C65.5913 16.5397 62.8142 15.1022 60.0372 15.1022C58.2519 15.1022 56.5328 15.5033 55.012 17.2418L56.665 19.0137C57.3593 18.2113 58.5164 17.8436 59.6404 17.8436C61.1612 17.8101 62.5828 18.5456 62.5828 19.9498L62.6489 21.521ZM62.6489 27.0373C61.9877 27.171 61.0951 27.3382 60.1033 27.3382C58.7148 27.3382 57.4915 26.8701 57.4915 25.4994C57.4915 24.2624 58.4833 23.3598 60.2025 23.3598C61.0951 23.3598 62.0208 23.5938 62.6158 23.8278V27.0373H62.6489ZM67.2773 24.9645C67.2773 28.2742 70.0544 29.8455 72.8314 29.8455C75.0464 29.8455 77.5921 28.8091 78.3525 26.1012L75.6085 25.0648C75.2448 26.3018 74.0216 26.9035 72.8645 26.9035C71.5751 26.9035 70.2858 26.2015 70.2858 24.9979V19.9498C70.2858 18.7128 71.7074 18.0442 72.9637 18.0442C74.1208 18.0442 75.2117 18.6459 75.5754 19.8829L78.2863 18.8465C77.526 16.1385 75.0134 15.1022 72.8314 15.1022C70.0874 15.1022 67.2773 16.6735 67.2773 20.0166V24.9645ZM82.5842 21.1199V10.1208H79.6087V29.5781H82.5842V24.6302L83.4107 23.7944L87.8407 29.6115H91.3451L85.5265 21.9557L91.3781 15.4031H87.6093L82.5842 21.1199ZM99.0481 25.4994C98.5522 26.5692 97.4612 26.937 96.4363 26.937C95.1801 26.937 93.9238 26.168 93.9238 24.8976V23.8947H101.957V19.9832C101.957 16.64 99.1803 15.1022 96.5025 15.1022C93.7585 15.1022 90.9153 16.6735 90.9153 19.9832V24.9645C90.9153 28.2408 93.6923 29.8455 96.5025 29.8455C98.3538 29.8455 100.437 28.876 101.528 26.937L99.0481 25.4994ZM99.1142 21.3539H93.9238V20.0835C93.8907 18.6794 95.147 18.0442 96.5025 18.0442C97.7918 18.0442 99.0812 18.7462 99.0812 20.0501V21.3539H99.1142ZM109.561 27.171C107.941 27.171 106.454 27.0373 106.454 24.7973V18.111H109.131V15.3696H106.454L106.156 12.0265H103.478V24.8308C103.478 28.408 105.693 29.9124 108.437 29.9124C108.801 29.9124 109.164 29.879 109.561 29.8455V27.171ZM118.025 21.521C117.231 21.1533 116.173 20.9861 115.148 20.9861C112.537 20.9861 109.925 22.4237 109.925 25.5328C109.925 28.9094 112.702 29.8455 115.644 29.8455C117.694 29.8455 119.678 29.3775 120.967 28.876V19.7826C120.967 16.5397 118.19 15.1022 115.413 15.1022C113.595 15.1022 111.908 15.5033 110.388 17.2418L112.041 19.0137C112.735 18.2113 113.892 17.8436 115.016 17.8436C116.537 17.8101 117.958 18.5456 117.958 19.9498V21.5545H118.025V21.521ZM118.025 27.0373C117.363 27.171 116.471 27.3382 115.479 27.3382C114.123 27.3382 112.867 26.8701 112.867 25.4994C112.867 24.2624 113.859 23.3598 115.578 23.3598C116.471 23.3598 117.396 23.5938 117.992 23.8278V27.0373H118.025Z" fill="#19171E"/>
<path fill-rule="evenodd" clip-rule="evenodd" d="M27.3076 11.1238L23.4065 13.0629L12.0338 7.94783L15.5713 6.5437L27.3076 11.1238ZM16.2986 16.6401L15.5051 17.0078L14.7117 16.6401L3.7688 11.1238L8.9923 9.11794L20.2327 14.6676L16.2986 16.6401Z" fill="#19171E"/>
<path fill-rule="evenodd" clip-rule="evenodd" d="M2.14891 25.4661L1.78525 24.7974L0 9.85349L2.38033 10.7561L3.93415 24.0619L15.2076 34.3255L14.8109 36.9666L2.14891 25.4661ZM28.6631 10.7896L31.0434 9.88692L29.2582 24.8309L28.8945 25.4995L16.2656 37L15.8689 34.3589L27.1093 24.1288L28.6631 10.7896ZM15.935 3.03343L30.3492 8.68338L28.3325 10.3215L15.5382 5.27335L2.71093 10.2881L0.694262 8.64995L15.1085 3H15.935V3.03343Z" fill="#19171E"/>
<path fill-rule="evenodd" clip-rule="evenodd" d="M23.671 13.5644L27.3076 11.291L25.8861 23.3598L15.6044 32.6873L16.1664 18.2114L20.6956 15.4031L20.3981 22.4906L23.1751 20.5182L23.671 13.5644Z" fill="#19171E"/>
<path fill-rule="evenodd" clip-rule="evenodd" d="M14.8771 18.2114L15.4391 32.6873L5.19048 23.3598L3.73584 11.291L14.8771 18.2114Z" fill="#19171E"/>
</g>
</g>
<defs>
<clipPath id="clip0_3733_8100">
<rect width="121" height="34" fill="white" transform="translate(0 3)"/>
</clipPath>
</defs>
</svg>
