<svg width="130" height="40" viewBox="0 0 130 40" fill="none" xmlns="http://www.w3.org/2000/svg">
<g opacity="0.9">
<path d="M42.6746 14.5604L42.5929 14.3398H42.3546H37.1945H36.9563L36.8746 14.5604L30.9725 30.6152L30.8091 31.063H31.2924H34.6077H34.8527L34.9276 30.8358L36.718 25.4953H42.7699L44.6351 30.8358L44.7168 31.063H44.9619H48.2771H48.7605L48.5971 30.6152L42.6746 14.5604ZM41.7624 22.541H37.8821L39.6248 17.2741H39.9652L41.7624 22.541Z" fill="white"/>
<path d="M70.4736 28.1154V24.1786H77.8802H78.2206V23.8444V21.5652V21.231H77.8802H70.4736V17.2875H79.4391H79.7795V16.9533V14.674V14.3398H79.4391H67.0154H66.675V14.674V30.7288V31.063H67.0154H79.5685H79.9089V30.7288V28.4496V28.1154H79.5685H70.4736Z" fill="white"/>
<path d="M129.313 23.9385C129.15 23.3303 128.898 22.8557 128.544 22.4948C127.591 21.5056 125.385 21.1914 124.201 21.0177C124.044 20.9976 123.908 20.9776 123.813 20.9575L121.498 20.5097H121.492H121.485C121.165 20.4562 120.539 20.2022 120.389 20.0418C119.987 19.6207 120.021 18.9456 120.042 18.7184C120.157 17.4886 120.824 17.3549 121.076 17.3148C121.24 17.288 121.458 17.2814 121.648 17.2814C121.73 17.2814 121.812 17.2814 121.9 17.2814C121.995 17.2814 122.091 17.2814 122.193 17.2814H128.17H128.51V16.9472L128.503 14.6679V14.3337H128.163C128.163 14.3337 125.712 14.3337 123.956 14.3337C122.935 14.3337 122.356 14.3337 122.234 14.3337C120.702 14.3404 119.436 14.5877 118.483 15.0757C117.53 15.5569 116.876 16.2788 116.536 17.2011C116.311 17.8094 116.195 18.4911 116.195 19.2197V19.5806C116.195 20.2624 116.263 20.8706 116.386 21.3853C116.508 21.8799 116.733 22.2809 117.135 22.7221C117.502 23.1298 117.931 23.3504 118.537 23.5977C119.123 23.8383 119.878 24.0388 120.777 24.1925H120.784H120.79C120.797 24.1925 121.825 24.3195 122.901 24.5C124.895 24.8342 125.229 25.0347 125.277 25.0748C125.44 25.2085 125.637 25.5895 125.685 26.1376C125.739 26.699 125.631 27.2605 125.385 27.6749C125.12 28.1227 123.861 28.1895 123.445 28.2163C123.37 28.2229 123.309 28.2229 123.255 28.2296H117.087H116.747V28.5638L116.74 30.7361V31.0636L117.073 31.0703C117.216 31.0703 117.468 31.077 117.843 31.077C118.748 31.077 120.171 31.0703 121.11 31.0636C121.607 31.0636 121.995 31.0569 122.125 31.0569H122.145C122.186 31.0569 122.234 31.0569 122.274 31.0569C124.235 31.0569 125.692 30.9232 126.727 30.6425C127.632 30.3952 128.02 30.0878 128.279 29.8872L128.292 29.8739C129.524 28.9047 129.524 26.9396 129.524 26.1041V25.7699C129.531 25.0748 129.456 24.4666 129.313 23.9385Z" fill="white"/>
<path d="M60.7605 21.2722H58.1396H57.7992V21.6064V23.8857V24.2198H58.1396H60.4201V28.1166H55.2941C54.2798 28.1166 53.4561 27.3078 53.4561 26.3119V19.0933C53.4561 18.0974 54.2798 17.2886 55.2941 17.2886H63.5176H63.8579V16.9544V14.6618V14.3276H63.5176H54.7223C51.9312 14.3276 49.6575 16.5601 49.6575 19.3005V26.098C49.6575 28.8384 51.9312 31.0709 54.7223 31.0709H61.6931C63.0819 31.0709 64.2119 29.9613 64.2119 28.5978V24.6543V21.6198V21.2856H63.8715H60.7605V21.2722Z" fill="white"/>
<path d="M109.817 14.5604L109.736 14.3398H109.497H104.337H104.099L104.017 14.5604L98.1153 30.6152L97.9519 31.063H98.4352H101.75H101.996L102.07 30.8358L103.861 25.4953H109.913L111.778 30.8358L111.86 31.063H112.105H115.42H115.903L115.74 30.6152L109.817 14.5604ZM108.905 22.541H105.025L106.768 17.2741H107.108L108.905 22.541Z" fill="white"/>
<path d="M95.8802 25.1809C95.8598 25.1341 95.8462 25.094 95.8257 25.0472C95.3152 24.038 94.4711 23.5099 93.0483 23.3161C93.9809 23.0487 94.5051 22.8282 95.0837 22.4739C96.1593 21.8189 96.8265 20.5222 96.8265 19.0785C96.8265 17.1468 95.7032 15.4892 93.9741 14.8543C93.0687 14.5267 92.388 14.4465 90.3253 14.4465H82.5715V31.3101H86.2952H86.3633V31.2432V24.5393H88.9502C91.7753 24.5393 92.5854 25.5352 92.7147 29.1645L92.7692 31.2432V31.3101H92.8372H96.5473C96.5473 31.3101 96.5541 30.3476 96.5473 28.6098C96.5337 26.3105 96.1525 25.8493 95.8802 25.1809ZM86.3497 17.3073H90.2027C90.972 17.3073 91.5983 17.2805 91.9863 17.4075C92.8849 17.7283 93.4227 18.5304 93.4227 19.5531C93.4227 21.097 92.2858 21.9459 90.2232 21.9459H86.3565V17.3073H86.3497Z" fill="white"/>
<path d="M6.37864 13.3174H2.19202C0.980281 13.3174 0 14.1529 0 15.1755V21.1443C0 22.1736 0.980281 23.0024 2.19202 23.0024H8.57065V15.1755C8.57065 14.1529 7.59037 13.3174 6.37864 13.3174Z" fill="white"/>
<path d="M15.1127 4H21.9406C23.9216 4 25.5282 5.35684 25.5282 7.0345V16.7864C25.5282 18.464 23.9216 19.8209 21.9406 19.8209H11.5251V7.0345C11.532 5.35684 13.1317 4 15.1127 4Z" fill="white"/>
<path d="M17.6921 22.9753H8.50879V34.0573C8.50879 35.0866 9.48907 35.9154 10.7008 35.9154H17.6921C18.9039 35.9154 19.8841 35.0799 19.8841 34.0573V24.8402C19.8909 23.8108 18.9107 22.9753 17.6921 22.9753Z" fill="white"/>
</g>
</svg>
