<svg width="98" height="40" viewBox="0 0 98 40" fill="none" xmlns="http://www.w3.org/2000/svg">
<g opacity="0.9">
<path d="M48.3909 20.4607C49.9568 20.6708 51.1873 21.2048 52.0825 22.0629C52.5161 22.4666 52.86 22.9582 53.0914 23.5055C53.3229 24.0527 53.4367 24.6431 53.4254 25.2379C53.4254 26.8498 52.7168 28.1288 51.2996 29.0747C49.8824 30.0207 47.8755 30.4945 45.2787 30.4962H37.9343C37.8276 30.4988 37.7225 30.4697 37.6321 30.4126C37.5418 30.3554 37.4701 30.2726 37.4261 30.1746C37.3822 30.0767 37.3678 29.9678 37.3849 29.8617C37.402 29.7555 37.4498 29.6568 37.5222 29.5779L37.927 29.1285C38.228 28.8192 38.4013 28.4063 38.4118 27.9733V14.3647C38.3997 13.9277 38.2269 13.5108 37.927 13.1949L37.5392 12.7577C37.4691 12.6785 37.4235 12.5805 37.4077 12.4756C37.392 12.3707 37.4068 12.2634 37.4505 12.1669C37.4942 12.0703 37.5648 11.9887 37.6537 11.9318C37.7426 11.875 37.846 11.8454 37.9512 11.8467H44.7939C46.9851 11.8467 48.6713 12.2847 49.8525 13.1607C51.0338 14.0367 51.6244 15.1666 51.6244 16.5506C51.646 17.4702 51.336 18.3666 50.7518 19.0735C50.1406 19.7884 49.3095 20.2768 48.3909 20.4607ZM42.3312 14.6285V18.5948C42.3234 18.7641 42.3506 18.9331 42.4111 19.0912C42.4716 19.2493 42.5641 19.393 42.6827 19.5131C42.811 19.6309 42.9613 19.7218 43.1249 19.7805C43.2884 19.8392 43.4619 19.8646 43.6353 19.855H45.4605C45.8209 19.8778 46.182 19.8237 46.5203 19.6963C46.8586 19.5689 47.1665 19.3711 47.4238 19.1157C47.6811 18.8604 47.8821 18.5532 48.0136 18.2144C48.1452 17.8755 48.2044 17.5125 48.1873 17.149C48.1873 15.9767 47.8706 15.0665 47.2372 14.4185C46.6037 13.7704 45.7473 13.4448 44.6678 13.4415H43.4438C42.7069 13.4464 42.3433 13.8396 42.3433 14.6285H42.3312ZM45.7247 28.894C46.8914 28.894 47.7801 28.627 48.3909 28.0929C49.0018 27.5589 49.3104 26.8099 49.3169 25.846C49.3169 24.6884 48.8563 23.6593 47.9353 22.7589C47.0142 21.8585 45.7537 21.4075 44.154 21.4059H42.8717C42.7277 21.4059 42.5896 21.4635 42.4878 21.5661C42.386 21.6687 42.3288 21.8079 42.3288 21.953V27.0012C42.311 27.4954 42.4779 27.9782 42.7966 28.3543C42.9484 28.5304 43.1373 28.6702 43.3494 28.7635C43.5616 28.8569 43.7917 28.9015 44.0231 28.894H45.7247Z" fill="white"/>
<path d="M55.0909 30.4962C55.0209 30.4964 54.9524 30.4762 54.8935 30.438C54.8347 30.3999 54.788 30.3455 54.7591 30.2813C54.7301 30.2171 54.7202 30.1458 54.7305 30.0761C54.7408 30.0063 54.7708 29.941 54.817 29.8881L55.486 29.1285C55.7964 28.8136 55.9744 28.3902 55.9829 27.9464V22.0092C55.9718 21.5545 55.7949 21.1198 55.486 20.788C55.3284 20.6024 55.1297 20.3728 54.9649 20.1848C54.9287 20.1426 54.9026 20.0928 54.8885 20.0389C54.8744 19.9851 54.8726 19.9287 54.8834 19.8741C54.8941 19.8194 54.9171 19.768 54.9505 19.7237C54.984 19.6793 55.027 19.6432 55.0764 19.6182L58.7994 17.74C58.9173 17.6719 59.0494 17.6329 59.185 17.6261C59.3207 17.6193 59.456 17.6449 59.5799 17.701C59.6753 17.7587 59.7528 17.8421 59.8037 17.9417C59.8547 18.0414 59.8771 18.1534 59.8684 18.2651V27.9587C59.875 28.1826 59.9268 28.4029 60.0206 28.6061C60.1143 28.8093 60.2481 28.9912 60.4138 29.1407C60.581 29.3092 60.8743 29.6121 61.1409 29.8881C61.1904 29.9398 61.2236 30.0051 61.2365 30.0758C61.2494 30.1464 61.2414 30.2193 61.2135 30.2854C61.1856 30.3515 61.139 30.4079 61.0796 30.4476C61.0201 30.4872 60.9504 30.5084 60.8791 30.5084L55.0909 30.4962ZM59.7763 15.3759C59.2698 15.8224 58.6112 16.0536 57.939 16.0207C57.2584 16.0504 56.5918 15.8201 56.0726 15.3759C55.8385 15.1683 55.653 14.9111 55.5294 14.6226C55.4058 14.3342 55.3471 14.0218 55.3575 13.7078C55.3493 13.398 55.4092 13.0903 55.5328 12.8066C55.6564 12.5228 55.8407 12.2701 56.0726 12.0666C56.5918 11.6223 57.2584 11.392 57.939 11.4218C58.6112 11.3889 59.2698 11.62 59.7763 12.0666C60.0018 12.274 60.1802 12.528 60.2994 12.8112C60.4186 13.0945 60.4758 13.4003 60.4671 13.7078C60.4781 14.0196 60.4221 14.3301 60.3028 14.618C60.1836 14.9059 60.004 15.1645 59.7763 15.3759Z" fill="white"/>
<path d="M90.0505 17.884C90.1897 17.8866 90.3252 17.9295 90.441 18.0074C90.5568 18.0854 90.6479 18.1952 90.7036 18.3238C90.7592 18.4524 90.777 18.5944 90.7549 18.7329C90.7328 18.8714 90.6717 19.0006 90.5789 19.1052L90.3583 19.3494C90.0379 19.6827 89.7698 20.0631 89.5633 20.4778L84.6355 31.2777C84.4077 31.7832 84.2162 32.196 84.061 32.4988C83.9059 32.8017 83.6659 33.2315 83.3339 33.7468C83.0681 34.1923 82.7481 34.6025 82.3813 34.968C82.0332 35.2906 81.6374 35.5568 81.2081 35.7568C80.7553 35.9804 80.258 36.0974 79.7538 36.0988C78.765 36.1377 77.7932 35.8314 77.0027 35.2317C76.2836 34.6521 75.9232 34.0008 75.9216 33.2779C75.9119 33.069 75.9438 32.8603 76.0154 32.664C76.087 32.4677 76.1969 32.2878 76.3385 32.1349C76.4893 31.9864 76.6691 31.871 76.8665 31.7962C77.0638 31.7214 77.2745 31.6887 77.485 31.7002C77.7002 31.6898 77.915 31.7283 78.1135 31.8129C78.3119 31.8974 78.489 32.0258 78.6315 32.1886C78.9031 32.4998 79.0916 32.8755 79.1793 33.2803C79.2592 33.6618 79.3957 34.029 79.5841 34.3696C79.6465 34.5124 79.7481 34.6343 79.8769 34.7208C80.0057 34.8074 80.1565 34.855 80.3113 34.8581C81.1192 34.8581 82.0145 33.632 82.9969 31.18L77.8074 20.4607C77.5869 20.0372 77.3014 19.6514 76.9615 19.3177L76.753 19.1101C76.6516 19.0078 76.5825 18.8775 76.5544 18.7357C76.5263 18.5939 76.5405 18.4468 76.5952 18.3131C76.6499 18.1794 76.7426 18.065 76.8617 17.9843C76.9808 17.9036 77.1209 17.8602 77.2644 17.8596H82.1898C82.258 17.8599 82.3247 17.8796 82.3823 17.9162C82.4399 17.9529 82.4861 18.0052 82.5157 18.067C82.5453 18.1289 82.557 18.1979 82.5495 18.2662C82.542 18.3345 82.5157 18.3992 82.4734 18.4531L82.0831 18.9416C81.9464 19.1093 81.8405 19.3004 81.7705 19.5057C81.7196 19.6816 81.7705 20.0137 81.928 20.5046L84.9773 27.624L87.7938 20.8734C87.9683 20.2775 87.9683 19.8656 87.7938 19.6376C87.5918 19.3825 87.3552 19.1572 87.0909 18.9684L86.4752 18.5117C86.4133 18.466 86.3674 18.4018 86.3439 18.3282C86.3205 18.2545 86.3207 18.1753 86.3447 18.1019C86.3686 18.0284 86.415 17.9645 86.4772 17.9192C86.5394 17.874 86.6142 17.8497 86.691 17.8499L90.0505 17.884Z" fill="white"/>
<path d="M62.5587 30.4962C62.4889 30.4958 62.4207 30.4753 62.3622 30.437C62.3037 30.3987 62.2574 30.3442 62.2288 30.2801C62.2002 30.216 62.1904 30.1449 62.2008 30.0754C62.2112 30.0059 62.2412 29.9408 62.2872 29.888L62.9562 29.1285C63.2616 28.8112 63.435 28.3883 63.441 27.9464V15.0706C63.4354 14.6126 63.2628 14.1728 62.9562 13.8347L62.4351 13.2339C62.3985 13.192 62.372 13.1421 62.3576 13.0882C62.3432 13.0342 62.3413 12.9777 62.3521 12.9229C62.3629 12.8681 62.386 12.8166 62.4197 12.7723C62.4535 12.7279 62.4969 12.692 62.5466 12.6673L66.2672 10.7867C66.3857 10.7193 66.5182 10.6807 66.6541 10.6739C66.79 10.6671 66.9256 10.6924 67.0502 10.7477C67.1451 10.8057 67.2221 10.8892 67.2726 10.9889C67.3231 11.0885 67.3451 11.2003 67.3362 11.3118V27.9464C67.3433 28.1705 67.3955 28.3909 67.4897 28.5941C67.5838 28.7973 67.718 28.9791 67.884 29.1285C68.0512 29.297 68.3421 29.5998 68.6111 29.8758C68.6606 29.9276 68.6938 29.9928 68.7067 30.0635C68.7196 30.1341 68.7116 30.2071 68.6837 30.2732C68.6558 30.3393 68.6093 30.3957 68.5498 30.4353C68.4904 30.475 68.4207 30.4961 68.3494 30.4962H62.5587Z" fill="white"/>
<path d="M70.0294 30.4962C69.9596 30.4958 69.8914 30.4753 69.8329 30.437C69.7744 30.3987 69.7281 30.3442 69.6995 30.2801C69.6709 30.216 69.6612 30.1449 69.6715 30.0754C69.6819 30.0059 69.7119 29.9408 69.7579 29.888C70.0003 29.6096 70.2718 29.3019 70.4269 29.1285C70.7323 28.8112 70.9057 28.3883 70.9117 27.9464V15.0706C70.9061 14.6126 70.7335 14.1728 70.4269 13.8347L69.9058 13.2339C69.8692 13.192 69.8427 13.1421 69.8283 13.0882C69.8139 13.0342 69.812 12.9777 69.8228 12.9229C69.8336 12.8681 69.8567 12.8166 69.8904 12.7723C69.9242 12.7279 69.9676 12.692 70.0173 12.6673L73.738 10.7867C73.8565 10.7193 73.9889 10.6807 74.1248 10.6739C74.2607 10.6671 74.3963 10.6924 74.5209 10.7477C74.6154 10.8061 74.6921 10.8897 74.7425 10.9893C74.793 11.0888 74.8153 11.2004 74.8069 11.3118V27.9464C74.8134 28.1706 74.8654 28.3912 74.9596 28.5944C75.0538 28.7977 75.1883 28.9794 75.3547 29.1285C75.5219 29.297 75.8128 29.5998 76.0819 29.8758C76.1323 29.927 76.1665 29.9921 76.1802 30.0629C76.1938 30.1338 76.1863 30.2071 76.1585 30.2735C76.1307 30.34 76.0839 30.3967 76.0241 30.4363C75.9642 30.476 75.8941 30.4968 75.8225 30.4962H70.0294Z" fill="white"/>
<path d="M12.2196 2.8418C11.8715 2.84255 11.5236 2.8613 11.1773 2.89797C7.24094 3.29851 5.52725 6.64447 5.04247 8.81324C3.62715 9.29821 2.39918 10.2197 1.53258 11.447C0.665981 12.6744 0.204692 14.1454 0.214078 15.6517C0.170448 18.2186 1.33876 20.3678 2.13865 21.5328C1.78269 22.2821 1.61616 23.1085 1.65387 23.9384C1.65818 24.7054 1.83853 25.4611 2.18081 26.1462C2.52309 26.8313 3.01803 27.4273 3.62692 27.8877C4.55547 28.5709 5.67918 28.9318 6.82888 28.9159H7.00339C8.05779 31.4607 11.1701 36.8485 18.5799 36.8485C19.0647 36.8485 19.5495 36.8265 20.0633 36.7801C22.3684 36.5652 24.3245 35.8374 25.8807 34.6138C27.4368 33.3902 28.5639 31.683 29.2111 29.546C29.8122 27.5677 29.9916 25.2353 29.7346 22.7637C29.9561 22.6107 30.1531 22.4246 30.3188 22.2117C31.1962 21.0687 30.8714 17.4859 30.7503 16.1377C30.7209 15.8245 30.5965 15.528 30.3939 15.2885C30.1914 15.049 29.9206 14.8782 29.6183 14.7993C28.8311 14.5869 28.0276 14.4415 27.2162 14.3646C26.8255 13.6162 26.367 12.9058 25.8467 12.2422C28.8354 9.02084 27.7422 5.59916 27.0902 4.21193C26.9697 3.95156 26.7775 3.7316 26.5364 3.5783C26.2953 3.425 26.0155 3.34483 25.7304 3.34736C25.5189 3.34622 25.3095 3.38901 25.1151 3.47305C24.9208 3.55709 24.7457 3.68058 24.6008 3.83582C24.1742 4.30718 23.3453 4.87136 21.8206 4.87136H21.5225C19.4064 4.77366 17.9763 4.26566 16.5923 3.7772C15.2083 3.28874 13.926 2.83447 12.2123 2.83447L12.2196 2.8418Z" fill="white"/>
<path d="M29.7973 16.2429C29.7883 16.1289 29.7443 16.0206 29.6713 15.933C29.5983 15.8454 29.5 15.783 29.3901 15.7544C28.4889 15.5022 27.5616 15.3571 26.6269 15.3221C26.092 14.1754 25.3794 13.1218 24.5157 12.2008C27.8122 9.28473 26.9056 6.08287 26.2269 4.6297C26.1874 4.54891 26.1288 4.47914 26.0562 4.42654C25.9837 4.37394 25.8994 4.34012 25.8108 4.32806C25.7222 4.316 25.632 4.32606 25.5482 4.35737C25.4644 4.38867 25.3895 4.44026 25.3301 4.50758C24.7653 5.13037 23.614 5.94854 21.4907 5.85085C16.7398 5.63349 15.1716 3.46228 11.2812 3.8677C6.54011 4.35616 5.90505 9.58025 5.90505 9.58025C5.90505 9.58025 1.28512 10.5865 1.19786 15.6738C1.14938 18.4605 2.74672 20.7538 3.31876 21.4841C2.82055 22.1953 2.58086 23.0578 2.64007 23.9264C2.64221 24.5453 2.78617 25.1554 3.06071 25.7091C3.33525 26.2627 3.73297 26.7451 4.22287 27.1185C4.71613 27.4717 5.27461 27.7217 5.86536 27.8538C6.4561 27.986 7.06713 27.9975 7.66237 27.8878C8.33621 29.8416 11.0558 35.8839 18.5965 35.8839C19.0442 35.8839 19.5095 35.8619 19.9927 35.818C24.2442 35.4247 27.1141 33.1607 28.297 29.2726C28.9635 27.0745 29.0241 24.6322 28.7066 22.2509C29.0378 22.1141 29.3319 21.8997 29.5646 21.6257C30.1585 20.8442 29.904 17.403 29.7973 16.2429ZM25.3422 15.4467C23.7449 15.7227 22.0263 16.3894 21.6603 16.4236L21.2531 16.448C21.0374 16.4602 20.3369 16.343 19.4182 16.2233C18.1921 16.0353 16.9521 15.9536 15.7121 15.9791C14.3946 16.0544 13.0826 16.2078 11.783 16.4383L11.7272 16.4578V16.4456L11.6788 16.4749C11.6356 16.4954 11.595 16.5208 11.5576 16.5506L10.3747 17.2808C10.3747 16.9292 10.3747 16.5799 10.3747 16.238C10.3591 15.1143 10.0984 14.0079 9.61118 12.997C15.6273 15.4809 21.1198 14.5503 23.6843 13.1411C24.354 13.8123 24.9136 14.5864 25.3422 15.4345V15.4467ZM19.5249 20.937C19.3164 21.7478 18.8462 22.8908 17.7821 23.118C14.3523 23.8262 14.0542 22.7565 13.7124 21.9163C13.3789 21.1219 13.2067 20.2682 13.2058 19.4057C13.2058 18.4996 13.3537 17.9647 13.6906 17.6765C13.9064 17.4985 14.1661 17.3829 14.442 17.3419C15.5895 17.1495 16.7563 17.102 17.9154 17.2002C19.0886 17.3443 19.7067 17.718 19.7479 18.1601C19.7994 19.0881 19.7211 20.0188 19.5152 20.9248L19.5249 20.937ZM27.0923 28.8989C26.0573 32.301 23.6334 34.1987 19.8861 34.5455C10.8595 35.3686 8.79918 27.3407 8.71192 26.989L8.55921 26.3491L7.93142 26.5201C6.82128 26.8205 5.74992 26.6617 4.98155 26.0878C4.64714 25.8292 4.37649 25.4963 4.19066 25.1151C4.00483 24.7338 3.90885 24.3145 3.91019 23.8897C3.8811 22.8884 4.21802 22.1606 4.90883 21.7283C5.80082 21.169 6.99823 21.2569 7.52179 21.5353L7.69388 21.6282C7.95883 21.7652 8.19169 21.9577 8.37687 22.1927C8.56205 22.4277 8.69528 22.6999 8.76767 22.991C8.77828 23.0272 8.79973 23.0592 8.8291 23.0827C8.85847 23.1061 8.89431 23.1198 8.93172 23.122C8.96914 23.1241 9.00629 23.1146 9.0381 23.0946C9.06992 23.0746 9.09483 23.0453 9.10944 23.0105C9.53174 21.9523 9.85157 20.8555 10.0644 19.7354L11.48 18.6852C11.7224 19.1517 12.1563 23.1448 13.4191 23.9703C14.1899 24.4588 15.0286 24.8105 17.4888 24.4441C18.8462 24.2414 19.6364 23.731 20.303 22.4659C20.7877 21.5744 21.0665 19.5033 21.0665 19.5033C21.1368 18.673 21.4858 18.5582 21.6652 18.5484C21.6652 18.5484 22.1136 18.48 22.4384 19.4276C22.4384 19.4276 22.7947 20.3875 23.2092 21.2032C23.5219 21.9505 23.7764 22.5025 23.837 23.0374C23.913 23.506 23.8071 23.9861 23.5413 24.3782C23.2521 24.7632 22.8331 25.0282 22.3633 25.1231C21.9202 25.2217 21.4691 25.2789 21.0156 25.2941C20.9774 25.2953 20.9406 25.3087 20.9106 25.3325C20.8805 25.3562 20.8588 25.389 20.8485 25.4261C20.8382 25.4631 20.84 25.5025 20.8534 25.5385C20.8669 25.5745 20.8915 25.6052 20.9235 25.6262C21.3671 25.9071 22.5572 26.2954 23.6019 25.9144C23.9679 25.741 25.3544 25.3087 24.8138 22.8395C25.3401 22.9548 25.8849 22.9548 26.4112 22.8395C26.782 22.7834 27.1068 22.7223 27.405 22.6539C27.6546 25.0572 27.5504 27.3432 27.0826 28.8867L27.0923 28.8989ZM28.8229 20.026C28.7937 20.3388 28.6806 20.6376 28.4957 20.8906C28.3722 21.0454 28.2209 21.1754 28.0497 21.274H28.0352C27.7925 21.4114 27.5323 21.515 27.262 21.5817C26.8448 21.6898 26.4189 21.7601 25.9894 21.7918C25.112 21.8626 24.3896 21.02 24.0794 20.3264C23.7368 19.5155 23.5154 18.6579 23.4225 17.7815C23.3765 17.254 24.4478 16.6458 25.8634 16.5017C25.9652 16.5017 26.0694 16.4822 26.1736 16.4773H26.4548H26.496H26.7117H27.1601C27.8728 16.5018 28.1442 16.6117 28.2994 16.7216C28.5539 16.9169 28.7551 17.3834 28.8641 18.0819C28.95 18.7245 28.9328 19.3767 28.8132 20.0138L28.8229 20.026Z" fill="#1D1D1B"/>
<path d="M25.6697 17.708C25.2431 17.7349 24.9425 18.3821 24.9838 19.1539C25.025 19.9256 25.4201 20.5289 25.8467 20.502C26.2733 20.4752 26.5738 19.828 26.5326 19.0562C26.4914 18.2844 26.0987 17.6665 25.6697 17.708Z" fill="#1D1D1B"/>
<path d="M17.0452 18.497C16.4998 18.5165 16.0757 19.3005 16.1193 20.2481C16.1629 21.1957 16.621 21.9455 17.1664 21.926C17.7118 21.9064 18.136 21.1224 18.0923 20.1773C18.0487 19.2321 17.5882 18.4774 17.0452 18.497Z" fill="#1D1D1B"/>
<path d="M5.2847 22.9249C5.26637 22.937 5.25208 22.9543 5.24368 22.9747C5.23529 22.9951 5.23318 23.0176 5.23762 23.0392C5.24207 23.0608 5.25287 23.0805 5.26861 23.0959C5.28436 23.1112 5.30432 23.1214 5.3259 23.1252C5.81529 23.1782 6.28032 23.3676 6.66874 23.6722C7.06469 24.0499 7.35837 24.5232 7.52195 25.0473C7.53046 25.066 7.54412 25.0818 7.5613 25.0929C7.57849 25.104 7.59848 25.11 7.6189 25.11C7.63933 25.11 7.65932 25.104 7.67651 25.0929C7.69369 25.0818 7.70735 25.066 7.71586 25.0473C7.90632 24.7109 7.97653 24.3189 7.91478 23.9366C7.85302 23.5544 7.66303 23.205 7.37652 22.9469C7.07637 22.7175 6.71093 22.5915 6.33421 22.5875C5.9575 22.5835 5.58953 22.7018 5.2847 22.9249Z" fill="#1D1D1B"/>
<path d="M24.1909 28.32C22.9661 28.7782 21.6554 28.9559 20.3539 28.8402C17.884 28.596 16.4466 28.0147 15.7485 27.6411C15.7146 27.623 15.6759 27.6164 15.638 27.6221C15.6001 27.6279 15.565 27.6457 15.5379 27.6731C15.5108 27.7004 15.4931 27.7357 15.4874 27.7739C15.4816 27.8121 15.4882 27.8511 15.5061 27.8853C16.0273 28.7767 17.341 30.374 20.0873 30.4204C20.8881 30.4343 21.6831 30.2806 22.422 29.9691C23.1609 29.6576 23.8276 29.195 24.38 28.6107C24.4036 28.5805 24.4173 28.5436 24.4189 28.5052C24.4206 28.4668 24.4103 28.4288 24.3894 28.3967C24.3685 28.3646 24.338 28.3399 24.3024 28.3261C24.2668 28.3123 24.2278 28.3102 24.1909 28.32Z" fill="#1D1D1B"/>
</g>
</svg>
