<svg width="103" height="40" viewBox="0 0 103 40" fill="none" xmlns="http://www.w3.org/2000/svg">
<g opacity="0.9">
<g clip-path="url(#clip0_3733_8042)">
<path d="M6.10352e-05 6.02173V11.3555H25.6643L13.8034 17.6907H25.7314L28.5766 16.169V11.3555V9.80011V6.02173H6.10352e-05Z" fill="#19171E"/>
<path d="M15.7432 23.022H3.81521L0 25.0613V29.3572V31.4327V34.6909H28.5766V29.3572H3.88228L15.7432 23.022Z" fill="#19171E"/>
<path d="M53.0776 25.7725H49.2521V26.3987H53.0776V25.7725Z" fill="#19171E"/>
<path d="M103 25.7725H99.1746V26.3987H103V25.7725Z" fill="#19171E"/>
<path d="M39.2406 13.4774V5.96729H42.2149C44.4178 5.96729 46.0429 7.59767 46.0429 9.72235C46.0429 11.847 44.4178 13.4774 42.2149 13.4774H39.2406ZM40.7677 12.1162H42.0833C43.484 12.1162 44.4565 11.1069 44.4565 9.72235C44.4565 8.32746 43.484 7.32852 42.0833 7.32852H40.7677V12.1162Z" fill="#19171E"/>
<path d="M48.5143 13.4774V5.96729H50.044V13.4774H48.5143Z" fill="#19171E"/>
<path d="M57.9969 5.96729H59.5472L57.1508 13.4774H54.4886L52.1025 5.96729H53.7277L55.8662 13.0375L57.9969 5.96729Z" fill="#19171E"/>
<path d="M66.7312 13.4774L66.1972 11.847H62.6787L62.1551 13.4774H60.6047L63.1275 5.96729H65.8438L68.3667 13.4774H66.7312ZM63.1172 10.4858H65.7587L64.4432 6.42017L63.1172 10.4858Z" fill="#19171E"/>
<path d="M70.451 13.4774V5.96729H73.4253C75.6282 5.96729 77.2533 7.59767 77.2533 9.72235C77.2533 11.847 75.6282 13.4774 73.4253 13.4774H70.451ZM71.9807 12.1162H73.2963C74.697 12.1162 75.6695 11.1069 75.6695 9.72235C75.6695 8.32746 74.697 7.32852 73.2963 7.32852H71.9807V12.1162Z" fill="#19171E"/>
<path d="M79.7092 13.4774V5.96729H81.2389V12.1136H84.6929V13.4774H79.7092Z" fill="#19171E"/>
<path d="M90.306 5.86108C92.5296 5.86108 94.2424 7.54582 94.2424 9.72227C94.2424 11.8987 92.5322 13.5861 90.306 13.5861C88.0824 13.5861 86.3696 11.9013 86.3696 9.72227C86.3696 7.54323 88.0824 5.86108 90.306 5.86108ZM90.306 12.1808C91.6422 12.1808 92.6586 11.1068 92.6586 9.72486C92.6586 8.34032 91.6422 7.26892 90.306 7.26892C88.9801 7.26892 87.9534 8.3429 87.9534 9.72486C87.9534 11.1068 88.9801 12.1808 90.306 12.1808Z" fill="#19171E"/>
<path d="M45.0783 22.2324C45.0783 23.3271 44.191 24.1837 42.8212 24.1837H39.2382V16.6736H42.4988C43.8685 16.6736 44.7559 17.5535 44.7559 18.6482C44.7559 19.5488 44.1677 20.1932 43.172 20.3976C44.3612 20.5373 45.0783 21.2464 45.0783 22.2324ZM40.7266 17.996V19.7972H42.3517C42.9605 19.7972 43.3474 19.4013 43.3474 18.8863C43.3474 18.3713 42.9631 17.996 42.3517 17.996H40.7266ZM42.5555 22.8665C43.1643 22.8665 43.5383 22.4809 43.5383 21.9659C43.5383 21.4509 43.1643 21.0653 42.5555 21.0653H40.7266V22.8665H42.5555Z" fill="#19171E"/>
<path d="M47.6191 24.1862V16.676H52.6029V18.0373H49.1488V19.7531H52.4971V21.104H49.1488V22.8198H52.6029V24.1836H47.6191V24.1862Z" fill="#19171E"/>
<path d="M60.6125 16.676V19.3908L55.6391 22.8249H60.6125V24.1888H55.1593V21.474L60.1327 18.0399H55.1593V16.6786H60.6125V16.676Z" fill="#19171E"/>
<path d="M44.6501 27.3823V30.0971L39.6767 33.5312H44.6501V34.8951H39.1969V32.1803L44.1703 28.7462H39.1969V27.3849H44.6501V27.3823Z" fill="#19171E"/>
<path d="M52.8326 34.8925L52.2986 33.2621H48.7801L48.2564 34.8925H46.7061L49.2289 27.3823H51.9452L54.4681 34.8925H52.8326ZM49.216 31.8982H51.8575L50.5419 27.8326L49.216 31.8982Z" fill="#19171E"/>
<path d="M62.3926 32.9412C62.3926 34.0359 61.5052 34.8925 60.1355 34.8925H56.5524V27.3823H59.813C61.1828 27.3823 62.0702 28.2622 62.0702 29.3569C62.0702 30.2575 61.482 30.9019 60.4863 31.1063C61.6755 31.2435 62.3926 31.9526 62.3926 32.9412ZM58.0383 28.7022V30.5034H59.6634C60.2722 30.5034 60.6591 30.1074 60.6591 29.5924C60.6591 29.0774 60.2748 28.7022 59.6634 28.7022H58.0383ZM59.8672 33.5726C60.476 33.5726 60.85 33.187 60.85 32.672C60.85 32.157 60.476 31.7714 59.8672 31.7714H58.0383V33.5726H59.8672Z" fill="#19171E"/>
<path d="M70.9953 34.8925H69.1767L67.4225 32.2217H66.4604V34.8925H64.9307V27.3823H68.15C69.7545 27.3823 70.7915 28.4123 70.7915 29.7968C70.7915 30.8708 70.1724 31.7378 69.1328 32.0716L70.9953 34.8925ZM66.4604 28.7436V30.8139H68.15C68.7923 30.8139 69.2205 30.374 69.2205 29.7839C69.2205 29.1835 68.7923 28.7436 68.15 28.7436H66.4604Z" fill="#19171E"/>
<path d="M79.0487 34.8925L78.5148 33.2621H74.9962L74.4726 34.8925H72.9222L75.445 27.3823H78.1613L80.6842 34.8925H79.0487ZM75.4347 31.8982H78.0762L76.7607 27.8326L75.4347 31.8982Z" fill="#19171E"/>
<path d="M82.7686 34.8925V27.3823H85.7429C87.9458 27.3823 89.571 29.0127 89.571 31.1374C89.571 33.2621 87.9458 34.8925 85.7429 34.8925H82.7686ZM84.2983 33.5286H85.6139C87.0146 33.5286 87.9871 32.5194 87.9871 31.1348C87.9871 29.7399 87.0146 28.741 85.6139 28.741H84.2983V33.5286Z" fill="#19171E"/>
<path d="M92.0265 34.8925V27.3823H93.5562V33.5286H97.0103V34.8925H92.0265Z" fill="#19171E"/>
<path d="M99.1644 34.8925V27.3823H100.694V34.8925H99.1644Z" fill="#19171E"/>
</g>
</g>
<defs>
<clipPath id="clip0_3733_8042">
<rect width="103" height="31" fill="white" transform="translate(0 5)"/>
</clipPath>
</defs>
</svg>
