<svg width="103" height="40" viewBox="0 0 103 40" fill="none" xmlns="http://www.w3.org/2000/svg">
<g opacity="0.9">
<g clip-path="url(#clip0_3730_8019)">
<path d="M0 6.02173V11.3555H25.6642L13.8033 17.6907H25.7313L28.5766 16.169V11.3555V9.80011V6.02173H0Z" fill="white"/>
<path d="M15.7432 23.022H3.81521L0 25.0613V29.3572V31.4327V34.6909H28.5766V29.3572H3.88228L15.7432 23.022Z" fill="white"/>
<path d="M53.0777 25.7725H49.2522V26.3987H53.0777V25.7725Z" fill="white"/>
<path d="M103 25.7725H99.1748V26.3987H103V25.7725Z" fill="white"/>
<path d="M39.2407 13.4774V5.96729H42.215C44.4179 5.96729 46.0431 7.59767 46.0431 9.72235C46.0431 11.847 44.4179 13.4774 42.215 13.4774H39.2407ZM40.7678 12.1162H42.0834C43.4841 12.1162 44.4566 11.1069 44.4566 9.72235C44.4566 8.32746 43.4841 7.32852 42.0834 7.32852H40.7678V12.1162Z" fill="white"/>
<path d="M48.5144 13.4774V5.96729H50.0441V13.4774H48.5144Z" fill="white"/>
<path d="M57.9969 5.96729H59.5472L57.1508 13.4774H54.4886L52.1025 5.96729H53.7277L55.8662 13.0375L57.9969 5.96729Z" fill="white"/>
<path d="M66.7315 13.4774L66.1975 11.847H62.6789L62.1553 13.4774H60.605L63.1278 5.96729H65.8441L68.3669 13.4774H66.7315ZM63.1175 10.4858H65.759L64.4434 6.42017L63.1175 10.4858Z" fill="white"/>
<path d="M70.4512 13.4774V5.96729H73.4254C75.6284 5.96729 77.2535 7.59767 77.2535 9.72235C77.2535 11.847 75.6284 13.4774 73.4254 13.4774H70.4512ZM71.9809 12.1162H73.2965C74.6972 12.1162 75.6697 11.1069 75.6697 9.72235C75.6697 8.32746 74.6972 7.32852 73.2965 7.32852H71.9809V12.1162Z" fill="white"/>
<path d="M79.7092 13.4774V5.96729H81.2389V12.1136H84.693V13.4774H79.7092Z" fill="white"/>
<path d="M90.3061 5.86108C92.5297 5.86108 94.2425 7.54582 94.2425 9.72227C94.2425 11.8987 92.5322 13.5861 90.3061 13.5861C88.0825 13.5861 86.3696 11.9013 86.3696 9.72227C86.3696 7.54323 88.0825 5.86108 90.3061 5.86108ZM90.3061 12.1808C91.6423 12.1808 92.6586 11.1068 92.6586 9.72486C92.6586 8.34032 91.6423 7.26892 90.3061 7.26892C88.9802 7.26892 87.9535 8.3429 87.9535 9.72486C87.9535 11.1068 88.9802 12.1808 90.3061 12.1808Z" fill="white"/>
<path d="M45.0785 22.2324C45.0785 23.3271 44.1911 24.1837 42.8213 24.1837H39.2383V16.6736H42.4989C43.8686 16.6736 44.756 17.5535 44.756 18.6482C44.756 19.5488 44.1679 20.1932 43.1721 20.3976C44.3613 20.5373 45.0785 21.2464 45.0785 22.2324ZM40.7267 17.996V19.7972H42.3519C42.9606 19.7972 43.3476 19.4013 43.3476 18.8863C43.3476 18.3713 42.9632 17.996 42.3519 17.996H40.7267ZM42.5556 22.8665C43.1644 22.8665 43.5385 22.4809 43.5385 21.9659C43.5385 21.4509 43.1644 21.0653 42.5556 21.0653H40.7267V22.8665H42.5556Z" fill="white"/>
<path d="M47.6191 24.1862V16.676H52.6029V18.0373H49.1488V19.7531H52.4971V21.104H49.1488V22.8198H52.6029V24.1836H47.6191V24.1862Z" fill="white"/>
<path d="M60.6126 16.676V19.3908L55.6392 22.8249H60.6126V24.1888H55.1594V21.474L60.1328 18.0399H55.1594V16.6786H60.6126V16.676Z" fill="white"/>
<path d="M44.6502 27.3823V30.0971L39.6768 33.5312H44.6502V34.8951H39.197V32.1803L44.1704 28.7462H39.197V27.3849H44.6502V27.3823Z" fill="white"/>
<path d="M52.8328 34.8925L52.2988 33.2621H48.7803L48.2566 34.8925H46.7063L49.2291 27.3823H51.9454L54.4682 34.8925H52.8328ZM49.2162 31.8982H51.8577L50.5421 27.8326L49.2162 31.8982Z" fill="white"/>
<path d="M62.3927 32.9412C62.3927 34.0359 61.5053 34.8925 60.1355 34.8925H56.5525V27.3823H59.8131C61.1828 27.3823 62.0702 28.2622 62.0702 29.3569C62.0702 30.2575 61.4821 30.9019 60.4863 31.1063C61.6755 31.2435 62.3927 31.9526 62.3927 32.9412ZM58.0383 28.7022V30.5034H59.6635C60.2723 30.5034 60.6592 30.1074 60.6592 29.5924C60.6592 29.0774 60.2748 28.7022 59.6635 28.7022H58.0383ZM59.8673 33.5726C60.4761 33.5726 60.8501 33.187 60.8501 32.672C60.8501 32.157 60.4761 31.7714 59.8673 31.7714H58.0383V33.5726H59.8673Z" fill="white"/>
<path d="M70.9955 34.8925H69.1769L67.4228 32.2217H66.4606V34.8925H64.9309V27.3823H68.1502C69.7547 27.3823 70.7917 28.4123 70.7917 29.7968C70.7917 30.8708 70.1726 31.7378 69.1331 32.0716L70.9955 34.8925ZM66.4606 28.7436V30.8139H68.1502C68.7926 30.8139 69.2207 30.374 69.2207 29.7839C69.2207 29.1835 68.7926 28.7436 68.1502 28.7436H66.4606Z" fill="white"/>
<path d="M79.0489 34.8925L78.5149 33.2621H74.9963L74.4727 34.8925H72.9224L75.4452 27.3823H78.1615L80.6843 34.8925H79.0489ZM75.4349 31.8982H78.0764L76.7608 27.8326L75.4349 31.8982Z" fill="white"/>
<path d="M82.7688 34.8925V27.3823H85.7431C87.946 27.3823 89.5711 29.0127 89.5711 31.1374C89.5711 33.2621 87.946 34.8925 85.7431 34.8925H82.7688ZM84.2985 33.5286H85.6141C87.0148 33.5286 87.9873 32.5194 87.9873 31.1348C87.9873 29.7399 87.0148 28.741 85.6141 28.741H84.2985V33.5286Z" fill="white"/>
<path d="M92.0266 34.8925V27.3823H93.5563V33.5286H97.0104V34.8925H92.0266Z" fill="white"/>
<path d="M99.1646 34.8925V27.3823H100.694V34.8925H99.1646Z" fill="white"/>
</g>
</g>
<defs>
<clipPath id="clip0_3730_8019">
<rect width="103" height="31" fill="white" transform="translate(0 5)"/>
</clipPath>
</defs>
</svg>
