<svg width="122" height="40" viewBox="0 0 122 40" fill="none" xmlns="http://www.w3.org/2000/svg">
<g opacity="0.9">
<path fill-rule="evenodd" clip-rule="evenodd" d="M0 1.0001V38.6367H37.7171V1.0001H0ZM7.16406 32.2637H30.5911V27.5887H11.8505V13.5619L30.5911 13.5627V8.88748H7.16406V32.2637ZM16.5391 22.9141V18.2392H30.3441V22.9141H16.5391Z" fill="#19171E"/>
<path d="M117.323 19.6541V17.1877H117.896C118.506 17.1877 118.864 17.264 119.118 17.4542C119.386 17.6579 119.552 18.0268 119.552 18.433C119.552 19.2464 119.029 19.6541 117.997 19.6541H117.323ZM117.323 21.0899H118.392C119.398 21.0899 120.086 20.8485 120.57 20.3399C121.003 19.8697 121.258 19.1707 121.258 18.4463C121.258 17.6323 120.939 16.8952 120.392 16.3997C119.857 15.9294 119.258 15.7514 118.15 15.7514H115.667V24.2298H117.323V21.0899ZM108.176 15.7514H106.52V20.9378C106.52 21.929 106.712 22.6277 107.145 23.1997C107.73 23.9624 108.775 24.4199 109.933 24.4199C111.093 24.4199 112.138 23.9624 112.723 23.1997C113.157 22.6277 113.348 21.929 113.348 20.9378V15.7514H111.692V20.6073C111.692 21.4708 111.641 21.7503 111.424 22.1191C111.144 22.6024 110.571 22.9072 109.933 22.9072C109.298 22.9072 108.724 22.6024 108.444 22.1191C108.227 21.7503 108.176 21.4708 108.176 20.6073V15.7514ZM100.15 17.0739C101.717 17.0739 102.99 18.3699 102.99 19.9841C102.99 21.5982 101.717 22.9072 100.163 22.9072C98.5827 22.9072 97.3218 21.5982 97.3218 19.959C97.3218 18.3826 98.6088 17.0739 100.15 17.0739ZM100.175 15.5611C97.653 15.5611 95.6153 17.5176 95.6153 19.9328C95.6153 22.4759 97.5641 24.4199 100.112 24.4199C102.697 24.4199 104.697 22.488 104.697 19.997C104.697 17.5055 102.71 15.5611 100.175 15.5611ZM90.2322 19.6541V17.086H90.7418C91.7856 17.086 92.3334 17.5176 92.3334 18.3575C92.3334 19.196 91.7606 19.6541 90.7165 19.6541H90.2322ZM92.1042 20.6574C92.6395 20.556 92.945 20.4033 93.2761 20.1238C93.7477 19.7167 94.0408 19.0182 94.0408 18.2552C94.0408 17.5055 93.7225 16.7809 93.1996 16.3483C92.7284 15.9545 91.9777 15.7514 91.0349 15.7514H88.5757V24.2298H90.2322V20.8231H90.4482L92.7414 24.2298H94.78L92.1042 20.6574ZM82.8085 19.6916V21.128H84.8081C84.6801 22.2085 83.7888 22.9202 82.579 22.9202C80.9865 22.9202 79.8017 21.6869 79.8017 20.0353C79.8017 18.3437 80.9989 17.0739 82.5914 17.0739C83.5339 17.0739 84.2855 17.5055 84.7951 18.3316L86.2474 17.5565C85.4447 16.2475 84.1843 15.5611 82.604 15.5611C79.9923 15.5611 78.0947 17.4542 78.0947 20.0353C78.0947 22.5643 79.9802 24.4199 82.5538 24.4199C84.2349 24.4199 85.5467 23.6319 86.2474 22.2085C86.579 21.5602 86.6797 20.9242 86.693 19.6916H82.8085ZM69.306 22.7928L73.4449 15.7514H67.2039V17.1877H70.707L66.554 24.2298H73.2162V22.7928H69.306ZM65.2763 17.1877V15.7514H60.5763V24.2298H65.2763V22.7928H62.2323V20.5056H65.1617V19.0692H62.2323V17.1877H65.2763ZM58.5291 16.0818C57.7899 15.713 57.1913 15.5611 56.453 15.5611C53.9683 15.5611 51.9688 17.5565 51.9688 20.0353C51.9688 22.488 53.9562 24.4199 56.453 24.4199C57.1662 24.4199 57.7778 24.2802 58.5291 23.9243V21.9794C57.854 22.6407 57.2808 22.9072 56.4914 22.9072C54.886 22.9072 53.6761 21.6746 53.6761 20.0221C53.6761 18.3575 54.886 17.0739 56.453 17.0739C57.2422 17.0739 57.841 17.3528 58.5291 18.0268V16.0818Z" fill="#19171E"/>
</g>
</svg>
