<svg width="120" height="40" viewBox="0 0 120 40" fill="none" xmlns="http://www.w3.org/2000/svg">
<g opacity="0.9">
<path fill-rule="evenodd" clip-rule="evenodd" d="M33.5911 24.9836C34.1798 25.3094 34.7855 25.6446 35.5513 26.3643C38.6228 29.2496 38.1645 33.4932 36.2535 35.9517C33.4299 39.5819 29.016 39.2286 26.4609 37.4081C25.9149 37.0199 25.453 36.5355 24.991 36.051C24.6108 35.6523 24.2306 35.2536 23.8035 34.9084C21.8385 33.3195 19.7318 32.0643 17.2957 31.3547C14.3511 30.498 10.2746 30.3724 7.03001 31.394C6.9597 31.4161 6.86608 31.451 6.75241 31.4933C6.11244 31.7318 4.83715 32.2071 3.51009 31.9613C1.51065 31.5913 0 29.8365 0 27.7324C0 26.5174 0.528136 25.4427 1.3405 24.6606C1.73597 24.2799 2.15085 24.0381 2.61649 23.7667C3.134 23.4652 3.71421 23.127 4.40015 22.5211C5.98063 21.1245 7.63093 19.0057 8.30167 16.7474C8.6695 15.5118 8.81702 14.2144 8.75408 12.9288C8.68917 11.6206 8.35281 10.4193 7.9604 9.18077C7.54536 7.87059 7.41948 6.84993 8.37445 5.75467C9.07568 4.9509 10.2441 4.65844 11.2954 4.8979C11.8717 5.02867 12.2863 5.37232 12.7789 5.78064C13.1514 6.0894 13.5685 6.43513 14.1338 6.75375C15.3553 7.44172 16.3801 7.72927 17.5957 7.81171C20.0761 7.98051 22.1689 7.14337 23.9156 5.43572C24.4639 4.89926 24.8011 4.41125 25.1195 3.95055C25.4435 3.48161 25.748 3.04097 26.2357 2.60631C27.1779 1.7672 28.1112 1.30987 29.2206 1.10573C31.5731 0.673914 33.7269 1.59251 35.096 3.35414C36.5358 5.20607 36.7561 7.68707 35.8287 9.64989C35.3664 10.6264 34.4754 11.5666 33.4978 12.2153C32.5576 12.8395 31.7216 13.4558 31.0499 14.3293C28.6993 17.3863 29.4379 22.0755 32.4995 24.3122C32.8787 24.5893 33.2317 24.7847 33.5911 24.9836ZM15.2716 19.2619C15.2716 21.207 16.7007 23.0128 18.6844 23.0128C20.6927 23.0128 22.0981 21.2374 22.0981 19.2619C22.0981 17.3933 20.7802 15.5207 18.6844 15.5207C16.7429 15.5207 15.2716 17.2078 15.2716 19.2619ZM22.0971 14.399C22.0971 13.8533 22.4629 13.1035 23.415 13.1035C23.9765 13.1035 24.6925 13.5648 24.6925 14.399V24.2327C24.6925 24.7401 24.3099 25.5272 23.4041 25.5272C22.4875 25.5272 22.0971 24.7558 22.0971 24.271V23.1865C21.2621 24.3367 19.9157 25.3927 17.9723 25.3927C16.4912 25.3927 15.2293 24.795 14.1839 23.5997C13.1394 22.4092 12.6172 20.9764 12.6172 19.3011C12.6172 17.619 13.1394 16.1832 14.1839 14.9937C15.2293 13.8042 16.4912 13.2085 17.9723 13.2085C19.7859 13.2085 21.1136 14.0869 22.0971 15.4059V14.399Z" fill="#19171E"/>
<path fill-rule="evenodd" clip-rule="evenodd" d="M74.1031 10.8127C72.8914 10.3368 71.9925 11.2465 71.7712 11.8324L67.3947 23.2855L63.0191 11.8324C62.7979 11.2465 61.8989 10.3368 60.6873 10.8127C59.3792 11.326 59.4422 12.5528 59.6625 13.1024C59.6625 13.1024 63.3083 22.6534 64.4895 25.74C65.1691 27.5153 66.5017 27.8912 67.3947 27.8922C68.2887 27.8912 69.6213 27.5153 70.3009 25.74C71.4821 22.6534 75.1279 13.1024 75.1279 13.1024C75.3472 12.5528 75.4102 11.326 74.1031 10.8127Z" fill="#19171E"/>
<path fill-rule="evenodd" clip-rule="evenodd" d="M48.9456 24.4626C46.1967 24.4626 44.2169 21.961 44.2169 19.266C44.2169 16.42 46.2547 14.0822 48.9456 14.0822C51.8498 14.0822 53.6742 16.6771 53.6742 19.266C53.6742 22.0022 51.7269 24.4626 48.9456 24.4626ZM55.5547 10.6797C54.2348 10.6797 53.7273 11.718 53.7273 12.4737V13.8693C52.3652 12.0419 50.5261 10.8259 48.0132 10.8259C45.9617 10.8259 44.212 11.6493 42.7653 13.2981C41.3176 14.9459 40.5938 16.9352 40.5938 19.266C40.5938 21.5871 41.3176 23.5725 42.7653 25.2203C44.212 26.8779 45.9617 27.7062 48.0132 27.7062C50.706 27.7062 52.5707 26.2419 53.7273 24.6491V26.1506C53.7273 26.8229 54.2692 27.8917 55.5389 27.8917C56.7948 27.8917 57.324 26.8013 57.324 26.0976V12.4737C57.324 11.3176 56.3326 10.6797 55.5547 10.6797Z" fill="#19171E"/>
<path fill-rule="evenodd" clip-rule="evenodd" d="M84.3128 24.4626C81.5629 24.4626 79.5841 21.961 79.5841 19.266C79.5841 16.42 81.6209 14.0822 84.3128 14.0822C87.216 14.0822 89.0404 16.6771 89.0404 19.266C89.0404 22.0022 87.0941 24.4626 84.3128 24.4626ZM90.9209 10.6797C89.602 10.6797 89.0935 11.718 89.0935 12.4737V13.8693C87.7324 12.0419 85.8923 10.8259 83.3804 10.8259C81.3279 10.8259 79.5792 11.6493 78.1315 13.2981C76.6848 14.9459 75.9609 16.9352 75.9609 19.266C75.9609 21.5871 76.6848 23.5725 78.1315 25.2203C79.5792 26.8779 81.3279 27.7062 83.3804 27.7062C86.0722 27.7062 87.9369 26.2419 89.0935 24.6491V26.1506C89.0935 26.8229 89.6354 27.8917 90.9051 27.8917C92.161 27.8917 92.6902 26.8013 92.6902 26.0976V12.4737C92.6902 11.3176 91.6988 10.6797 90.9209 10.6797Z" fill="#19171E"/>
<path d="M95.718 25.9102C95.3079 25.6894 94.9922 25.2173 94.9922 24.5882C94.9922 23.7383 95.6541 23.0464 96.5382 23.0464C96.853 23.0464 97.1372 23.1406 97.3575 23.2663C98.9655 24.336 100.636 24.8709 102.151 24.8709C103.791 24.8709 104.736 24.179 104.736 23.0778V23.015C104.736 21.7245 102.97 21.3476 101.015 20.7499C98.5554 20.0571 95.8124 18.9863 95.8124 15.8085V15.7457C95.8124 12.5983 98.4295 10.6797 101.741 10.6797C103.506 10.6797 105.366 11.1832 106.974 12.0321C107.51 12.3157 107.89 12.8192 107.89 13.4796C107.89 14.361 107.195 15.0224 106.312 15.0224C105.997 15.0224 105.808 14.9586 105.556 14.833C104.2 14.1401 102.812 13.6995 101.646 13.6995C100.163 13.6995 99.3127 14.3924 99.3127 15.3365V15.3993C99.3127 16.627 101.11 17.0667 103.065 17.6958C105.492 18.4515 108.236 19.6154 108.236 22.6058V22.6686C108.236 26.1614 105.523 27.8926 102.057 27.8926C99.9431 27.8926 97.6417 27.2321 95.718 25.9102Z" fill="#19171E"/>
<path d="M111.692 23.0514V14.416H110.965C110.052 14.416 109.328 13.6947 109.328 12.7849C109.328 11.8751 110.052 11.1538 110.965 11.1538H111.692V8.59133C111.692 7.55594 112.444 6.70898 113.514 6.70898C114.552 6.70898 115.296 7.55594 115.296 8.59133V11.1538H118.14C119.053 11.1538 119.808 11.8751 119.808 12.7849C119.808 13.6947 119.053 14.416 118.14 14.416H115.296V22.4547C115.296 23.9288 116.158 24.5255 117.448 24.5255C117.888 24.5255 118.266 24.4313 118.392 24.4313C119.242 24.4313 119.997 25.1212 119.997 25.9996C119.997 26.6895 119.525 27.2538 118.99 27.4737C118.172 27.7553 117.385 27.9123 116.378 27.9123C113.577 27.9123 111.692 26.6895 111.692 23.0514Z" fill="#19171E"/>
</g>
</svg>
