<svg width="145" height="40" viewBox="0 0 145 40" fill="none" xmlns="http://www.w3.org/2000/svg">
<g opacity="0.9" clip-path="url(#clip0_3733_8020)">
<path d="M38.1763 14.645H52.8872V17.3897H47.1029V32.8188H43.9222V17.3897H38.1635V14.645H38.1763ZM52.2588 19.6598H54.9778V22.1993H55.0291C55.1189 21.8401 55.2856 21.4938 55.5293 21.1604C55.773 20.8269 56.0679 20.5063 56.4142 20.2369C56.7605 19.9548 57.1453 19.7368 57.5685 19.5572C57.9918 19.3905 58.4278 19.3007 58.8639 19.3007C59.1974 19.3007 59.4411 19.3135 59.5693 19.3263C59.6976 19.3392 59.8258 19.3648 59.9669 19.3776V22.1736C59.7617 22.1351 59.5565 22.1095 59.3384 22.0838C59.1204 22.0582 58.9152 22.0453 58.71 22.0453C58.2226 22.0453 57.7609 22.148 57.3248 22.3403C56.8888 22.5327 56.5168 22.8277 56.1962 23.1996C55.8756 23.5844 55.619 24.0461 55.4267 24.6105C55.2343 25.1748 55.1445 25.816 55.1445 26.5471V32.806H52.2459V19.6598H52.2588ZM73.2926 32.8188H70.4453V30.9847H70.394C70.0349 31.6517 69.5091 32.1775 68.8037 32.5751C68.0983 32.9727 67.38 33.1779 66.649 33.1779C64.9175 33.1779 63.6606 32.7547 62.8911 31.8953C62.1216 31.036 61.7368 29.7407 61.7368 28.0092V19.6598H64.6354V27.7271C64.6354 28.8814 64.8534 29.7022 65.3023 30.1767C65.7384 30.6513 66.3668 30.895 67.162 30.895C67.7776 30.895 68.2778 30.8052 68.6882 30.6128C69.0987 30.4204 69.4321 30.1767 69.6758 29.8561C69.9323 29.5483 70.1119 29.1635 70.2273 28.7274C70.3427 28.2914 70.394 27.8168 70.394 27.3038V19.6726H73.2926V32.8188ZM78.2304 28.5992C78.3202 29.4457 78.6409 30.0356 79.1924 30.3819C79.7567 30.7154 80.4236 30.895 81.206 30.895C81.4753 30.895 81.7831 30.8693 82.1294 30.8308C82.4757 30.7924 82.8091 30.7026 83.1041 30.5871C83.4119 30.4717 83.6556 30.2922 83.8608 30.0613C84.0532 29.8304 84.143 29.5355 84.1302 29.1635C84.1174 28.7916 83.9763 28.4838 83.7198 28.2529C83.4632 28.0092 83.1426 27.8297 82.745 27.6758C82.3474 27.5347 81.8985 27.4064 81.3855 27.3038C80.8725 27.2012 80.3595 27.0858 79.8336 26.9703C79.295 26.8549 78.7691 26.701 78.2689 26.5343C77.7687 26.3675 77.3198 26.1367 76.9222 25.8417C76.5246 25.5595 76.204 25.1876 75.9731 24.7387C75.7295 24.2898 75.614 23.7383 75.614 23.0714C75.614 22.3532 75.7936 21.7632 76.1399 21.2758C76.4862 20.7884 76.9351 20.4037 77.4609 20.1087C77.9996 19.8137 78.5896 19.6085 79.2437 19.4802C79.8978 19.3648 80.5262 19.3007 81.1162 19.3007C81.7959 19.3007 82.45 19.3776 83.0657 19.5187C83.6813 19.6598 84.2456 19.8907 84.7458 20.2241C85.246 20.5448 85.6564 20.968 85.9899 21.481C86.3233 21.994 86.5286 22.6225 86.6183 23.3535H83.5915C83.4504 22.661 83.1426 22.1864 82.6424 21.9556C82.1422 21.7119 81.5651 21.5965 80.9238 21.5965C80.7186 21.5965 80.4749 21.6093 80.1927 21.6478C79.9106 21.6862 79.6541 21.7504 79.3976 21.8401C79.1539 21.9299 78.9487 22.071 78.7691 22.2506C78.6024 22.4301 78.5126 22.661 78.5126 22.956C78.5126 23.3151 78.6409 23.5972 78.8845 23.8153C79.1282 24.0333 79.4489 24.2129 79.8465 24.3668C80.244 24.5078 80.6929 24.6361 81.206 24.7387C81.719 24.8413 82.2448 24.9567 82.7835 25.0722C83.3093 25.1876 83.8224 25.3415 84.3354 25.5082C84.8484 25.675 85.2973 25.9058 85.6949 26.2008C86.0925 26.4958 86.4131 26.8549 86.6568 27.291C86.9005 27.7271 87.0287 28.2786 87.0287 28.9198C87.0287 29.7022 86.8492 30.3563 86.4901 30.9078C86.131 31.4465 85.6692 31.8953 85.1049 32.2288C84.5406 32.5623 83.8993 32.8188 83.2067 32.9727C82.5142 33.1266 81.8216 33.2036 81.1418 33.2036C80.3082 33.2036 79.5386 33.1138 78.8332 32.9214C78.1278 32.729 77.5122 32.4468 76.9992 32.0749C76.4862 31.6901 76.0758 31.2156 75.7808 30.6513C75.4858 30.0869 75.3319 29.4072 75.3062 28.6248H78.2304V28.5992ZM87.7983 19.6598H89.9914V15.7095H92.89V19.6598H95.5064V21.8273H92.89V28.8557C92.89 29.1635 92.9028 29.42 92.9285 29.6509C92.9541 29.8689 93.0183 30.0613 93.108 30.2152C93.1978 30.3691 93.3389 30.4845 93.5313 30.5615C93.7237 30.6384 93.9674 30.6769 94.3008 30.6769C94.506 30.6769 94.7112 30.6769 94.9164 30.6641C95.1216 30.6513 95.3269 30.6256 95.5321 30.5743V32.8188C95.2114 32.8573 94.8908 32.8829 94.5958 32.9214C94.288 32.9599 93.9802 32.9727 93.6595 32.9727C92.89 32.9727 92.2744 32.8957 91.8127 32.7547C91.3509 32.6136 90.979 32.3955 90.7225 32.1134C90.4532 31.8312 90.2864 31.4849 90.1838 31.0617C90.094 30.6384 90.0299 30.1511 90.0171 29.6124V21.853H87.8239V19.6598H87.7983ZM97.5585 19.6598H100.303V21.4425H100.354C100.765 20.673 101.329 20.1343 102.06 19.8009C102.791 19.4674 103.574 19.3007 104.433 19.3007C105.472 19.3007 106.37 19.4802 107.139 19.8522C107.909 20.2113 108.55 20.7115 109.063 21.3528C109.576 21.994 109.948 22.7379 110.204 23.5844C110.461 24.4309 110.589 25.3415 110.589 26.3034C110.589 27.1884 110.474 28.0477 110.243 28.8685C110.012 29.7022 109.666 30.4332 109.204 31.0745C108.742 31.7158 108.152 32.216 107.434 32.6008C106.716 32.9855 105.882 33.1779 104.908 33.1779C104.484 33.1779 104.061 33.1394 103.638 33.0625C103.215 32.9855 102.804 32.8573 102.419 32.6905C102.035 32.5238 101.663 32.3058 101.342 32.0364C101.009 31.7671 100.739 31.4593 100.508 31.113H100.457V37.6797H97.5585V19.6598ZM107.691 26.2521C107.691 25.6621 107.614 25.085 107.46 24.5207C107.306 23.9564 107.075 23.469 106.767 23.0329C106.459 22.5968 106.075 22.2506 105.626 21.994C105.164 21.7375 104.638 21.5965 104.048 21.5965C102.83 21.5965 101.906 22.0197 101.291 22.8662C100.675 23.7127 100.367 24.8413 100.367 26.2521C100.367 26.919 100.444 27.5347 100.611 28.099C100.778 28.6633 101.009 29.1507 101.342 29.5611C101.663 29.9715 102.047 30.2922 102.496 30.523C102.945 30.7667 103.471 30.8821 104.061 30.8821C104.728 30.8821 105.279 30.7411 105.741 30.4717C106.203 30.2024 106.575 29.8433 106.87 29.42C107.165 28.984 107.383 28.4966 107.511 27.9451C107.627 27.3936 107.691 26.8293 107.691 26.2521ZM112.808 14.645H115.707V17.3897H112.808V14.645ZM112.808 19.6598H115.707V32.8188H112.808V19.6598ZM118.297 14.645H121.196V32.8188H118.297V14.645ZM130.084 33.1779C129.032 33.1779 128.096 32.9983 127.275 32.6521C126.454 32.3058 125.762 31.8184 125.185 31.2156C124.62 30.6 124.184 29.8689 123.889 29.0224C123.594 28.1759 123.44 27.2397 123.44 26.2265C123.44 25.2261 123.594 24.3026 123.889 23.4562C124.184 22.6097 124.62 21.8786 125.185 21.263C125.749 20.6474 126.454 20.1728 127.275 19.8265C128.096 19.4802 129.032 19.3007 130.084 19.3007C131.136 19.3007 132.072 19.4802 132.893 19.8265C133.714 20.1728 134.406 20.6602 134.983 21.263C135.548 21.8786 135.984 22.6097 136.279 23.4562C136.574 24.3026 136.728 25.2261 136.728 26.2265C136.728 27.2397 136.574 28.1759 136.279 29.0224C135.984 29.8689 135.548 30.6 134.983 31.2156C134.419 31.8312 133.714 32.3058 132.893 32.6521C132.072 32.9983 131.136 33.1779 130.084 33.1779ZM130.084 30.8821C130.725 30.8821 131.29 30.7411 131.764 30.4717C132.239 30.2024 132.623 29.8433 132.931 29.4072C133.239 28.9711 133.457 28.4709 133.611 27.9194C133.752 27.3679 133.829 26.8036 133.829 26.2265C133.829 25.6621 133.752 25.1106 133.611 24.5463C133.47 23.982 133.239 23.4946 132.931 23.0586C132.623 22.6225 132.239 22.2762 131.764 22.0069C131.29 21.7375 130.725 21.5965 130.084 21.5965C129.443 21.5965 128.878 21.7375 128.404 22.0069C127.929 22.2762 127.545 22.6353 127.237 23.0586C126.929 23.4946 126.711 23.982 126.557 24.5463C126.416 25.1106 126.339 25.6621 126.339 26.2265C126.339 26.8036 126.416 27.3679 126.557 27.9194C126.698 28.4709 126.929 28.9711 127.237 29.4072C127.545 29.8433 127.929 30.2024 128.404 30.4717C128.878 30.7539 129.443 30.8821 130.084 30.8821ZM137.574 19.6598H139.767V15.7095H142.666V19.6598H145.282V21.8273H142.666V28.8557C142.666 29.1635 142.679 29.42 142.704 29.6509C142.73 29.8689 142.794 30.0613 142.884 30.2152C142.974 30.3691 143.115 30.4845 143.307 30.5615C143.5 30.6384 143.743 30.6769 144.077 30.6769C144.282 30.6769 144.487 30.6769 144.692 30.6641C144.897 30.6513 145.103 30.6256 145.308 30.5743V32.8188C144.987 32.8573 144.667 32.8829 144.372 32.9214C144.064 32.9599 143.756 32.9727 143.435 32.9727C142.666 32.9727 142.05 32.8957 141.589 32.7547C141.127 32.6136 140.755 32.3955 140.498 32.1134C140.229 31.8312 140.062 31.4849 139.96 31.0617C139.87 30.6384 139.806 30.1511 139.793 29.6124V21.853H137.6V19.6598H137.574Z" fill="#19171E"/>
<path d="M17.4042 27.2791L24.9841 25.3168L28.1648 35.0898L17.4042 27.2791ZM34.7956 14.646H21.5084L17.4042 2L13.3001 14.646L0 14.6331L10.7606 22.4439L6.65645 35.0898L17.4042 27.2791L24.0479 22.4567L34.7956 14.646Z" fill="#19171E"/>
</g>
<defs>
<clipPath id="clip0_3733_8020">
<rect width="145" height="40" fill="white"/>
</clipPath>
</defs>
</svg>
