<svg width="121" height="40" viewBox="0 0 121 40" fill="none" xmlns="http://www.w3.org/2000/svg">
<g clip-path="url(#clip0_4072_16093)">
<g clip-path="url(#clip1_4072_16093)">
<path d="M39.7741 15.3417C39.7986 15.1871 39.8136 15.0938 39.8364 14.9494C39.9964 15.1158 40.1301 15.2573 40.2668 15.397C41.0651 16.2149 41.526 17.1986 41.6843 18.3167C41.8287 19.3368 41.6327 20.317 41.2024 21.2443C40.968 21.7483 40.7001 22.2405 40.4046 22.7125C40.1637 23.0971 40.0138 23.4959 39.9161 23.9382C38.5406 30.1766 34.9929 34.797 29.3162 37.7917C26.9086 39.062 24.3187 39.7705 21.5945 39.9512C16.6335 40.2811 12.1466 38.9823 8.13682 36.0631C8.04212 35.9942 7.91085 35.9436 7.79458 35.9389C5.75192 35.8563 3.70866 35.7903 1.6666 35.7005C1.21527 35.6809 0.820282 35.5216 0.677032 35.0152C0.614697 34.7958 0.500817 34.5901 0.404318 34.3815C0.26826 34.0867 0.259869 33.774 0.386936 33.4928C0.594319 33.0351 0.839462 32.5923 1.0918 32.1566C1.52394 31.41 1.97108 30.6717 2.42001 29.9347C2.50991 29.7866 2.5219 29.6761 2.43259 29.5126C1.19669 27.2574 0.403119 24.8577 0.129805 22.3029C-0.470766 16.694 1.01148 11.6765 4.60112 7.30574C7.34804 3.96035 10.8807 1.78478 15.0757 0.661327C17.1759 0.0990071 19.3157 -0.106662 21.4836 0.0502648C25.6067 0.348069 29.3126 1.74971 32.5648 4.28371C35.675 6.70716 37.892 9.77733 39.2095 13.48C39.3162 13.7807 39.4139 14.0845 39.5068 14.39C39.5961 14.6849 39.6734 14.9832 39.7735 15.3417H39.7741ZM28.0108 11.0286C24.8126 8.18251 19.7808 7.11493 15.3083 9.11872C11.6629 10.7516 9.40209 13.5596 8.40953 17.4394C8.52401 17.4227 8.57376 17.415 8.62411 17.4079C9.19351 17.3288 9.76112 17.2183 10.3335 17.1808C10.8478 17.1475 11.365 17.2076 11.8487 17.4233C12.0591 17.5173 12.203 17.6587 12.2611 17.8882C12.327 18.1467 12.4265 18.3982 12.4799 18.6585C12.586 19.1804 12.8952 19.6655 12.7604 20.2361C12.8197 20.2427 12.8629 20.2498 12.9066 20.2516C15.4593 20.3473 18.0115 20.3972 20.5636 20.2397C21.5166 20.1808 22.2748 19.8004 22.8059 19.0015C22.888 18.8773 22.9779 18.7584 23.0594 18.6336C24.3978 16.584 25.7362 14.5351 27.0728 12.4849C27.3887 11.9999 27.7003 11.5124 28.0114 11.0286H28.0108ZM22.1202 33.8584C22.1477 33.8495 22.2239 33.8251 22.2994 33.7984C24.9504 32.8616 27.5637 31.8344 30.111 30.6438C33.0401 29.2749 35.6696 27.4946 37.904 25.1615C39.0285 23.9875 40.021 22.7172 40.7205 21.2419C41.2563 20.1107 41.4655 18.9433 41.0849 17.7182C40.9009 17.1255 40.6252 16.5816 40.2038 16.0794C40.1805 16.181 40.1577 16.2494 40.1493 16.3201C39.994 17.6409 39.3216 18.6199 38.157 19.2678C36.9061 19.9639 35.5461 20.3425 34.14 20.5428C32.6811 20.7509 31.2144 20.9031 29.7496 21.0701C29.6045 21.0867 29.5254 21.1373 29.4559 21.2585C29.0723 21.9302 28.6815 22.5978 28.2943 23.2671C28.2637 23.32 28.2416 23.3776 28.193 23.4793C31.7347 22.9378 35.1499 22.1507 38.3386 20.5696C38.2709 20.6385 38.1947 20.6938 38.1174 20.7455C37.1626 21.3834 36.1263 21.8648 35.0612 22.2845C32.747 23.1963 30.3645 23.8805 27.9179 24.34C27.7165 24.378 27.5912 24.4571 27.4905 24.6372C27.1429 25.2607 26.7767 25.8742 26.4189 26.4924C26.3236 26.6564 26.2313 26.8229 26.109 27.0381C29.0735 26.4561 31.9175 25.6982 34.5607 24.318C34.5188 24.3602 34.4738 24.3982 34.4265 24.4327C33.6197 25.0212 32.7309 25.4628 31.818 25.8605C29.8946 26.6986 27.8951 27.3097 25.8609 27.8144C25.6894 27.8572 25.575 27.9291 25.4862 28.0872C25.1218 28.7351 24.7424 29.3753 24.3696 30.0191C24.3349 30.0791 24.3067 30.1427 24.2521 30.2521C26.3895 29.7748 28.4477 29.2321 30.3771 28.2774C30.3238 28.3392 30.2632 28.388 30.1961 28.426C29.8197 28.6394 29.4499 28.8683 29.0621 29.0591C27.4606 29.8485 25.7632 30.3775 24.0454 30.8489C23.9489 30.875 23.8386 30.947 23.7888 31.0296C23.2218 31.9765 22.6656 32.9299 22.1202 33.8584ZM30.5366 13.927C30.461 14.0405 30.4191 14.0988 30.3825 14.16C29.6657 15.3435 28.9518 16.5293 28.2326 17.7116C26.2373 20.991 24.2443 24.2722 22.2347 27.5427C22.0488 27.8447 21.7761 28.1116 21.495 28.3339C21.0569 28.6816 20.5216 28.8493 19.9798 28.9771C18.615 29.298 17.2221 29.3587 15.8298 29.3664C13.3807 29.3795 10.9311 29.3676 8.48266 29.3343C7.06035 29.3147 5.63864 29.2386 4.21752 29.1732C3.81295 29.1548 3.4743 29.2535 3.22317 29.5709C3.07572 29.7569 2.94266 29.9561 2.82159 30.1599C2.44098 30.7989 2.06578 31.4415 1.69477 32.0859C1.42385 32.556 1.15473 33.0274 0.901197 33.5065C0.754951 33.7829 0.747159 34.07 0.901197 34.3601C1.00549 34.5563 1.087 34.7661 1.15953 34.9759C1.22126 35.1548 1.33934 35.244 1.51855 35.2624C1.80865 35.2922 2.09874 35.3314 2.39004 35.3415C3.55761 35.3813 4.72519 35.4283 5.89337 35.4419C8.18477 35.4693 10.4762 35.4966 12.7676 35.4853C14.0472 35.4788 15.3281 35.4194 16.6053 35.3397C17.728 35.2696 18.8338 35.0746 19.8941 34.6793C20.9304 34.2929 21.733 33.664 22.2904 32.6779C23.8278 29.959 25.4143 27.2675 26.9817 24.5647C28.5077 21.9332 30.0343 19.3011 31.5585 16.6684C31.601 16.5947 31.6556 16.4966 31.6382 16.4259C31.5819 16.2018 31.4943 15.9848 31.405 15.7269C31.3391 15.8309 31.2978 15.8909 31.2612 15.9545C29.4517 19.0752 27.6428 22.1959 25.8333 25.3166C24.5129 27.5944 23.1835 29.8675 21.8774 32.153C21.5286 32.7635 21.0743 33.2569 20.4461 33.5517C19.8414 33.8358 19.2132 34.095 18.5689 34.2692C16.8451 34.7358 15.0686 34.8327 13.2932 34.8416C11.4214 34.8511 9.54894 34.8113 7.6771 34.7732C6.03002 34.7399 4.38355 34.6817 2.73647 34.6282C2.35707 34.6157 1.97827 34.5783 1.59287 34.5515C1.60066 34.5046 1.59887 34.4802 1.60906 34.4629C2.2354 33.3989 2.85995 32.3337 3.49228 31.2733C3.61515 31.0664 3.81894 30.9737 4.06229 30.9773C4.28705 30.9802 4.51122 30.988 4.73598 30.9927C6.27816 31.0236 7.82095 31.0498 9.36313 31.086C12.1035 31.1502 14.8438 31.2483 17.5841 31.1134C18.5659 31.0652 19.5363 30.9256 20.4743 30.6206C21.4249 30.3115 22.2197 29.8158 22.7489 28.923C23.9135 26.9584 25.117 25.017 26.3008 23.0638C27.8813 20.4555 29.4583 17.8448 31.034 15.2335C31.0694 15.1747 31.1155 15.0819 31.0928 15.0344C30.9237 14.6747 30.7385 14.3223 30.5378 13.9264L30.5366 13.927ZM29.387 12.3191C29.3324 12.3999 29.2953 12.4528 29.2599 12.5075C27.7069 14.9161 26.2451 17.3788 24.8024 19.8533C24.185 20.912 23.4891 21.9272 22.7951 22.9395C22.3641 23.5684 21.7276 23.9447 20.9934 24.1605C20.0218 24.4452 19.0208 24.5314 18.0181 24.5451C14.655 24.5908 11.2913 24.5861 7.93123 24.4125C7.46312 24.3881 7.13467 24.548 6.89672 24.9303C6.54668 25.4926 6.19665 26.0543 5.84722 26.6166C5.61586 26.9893 5.37911 27.3596 5.15854 27.7389C5.01049 27.9933 4.89541 28.2661 5.02668 28.5633C5.06204 28.6442 5.14475 28.7518 5.21548 28.7595C5.37072 28.7767 5.54274 28.8368 5.66621 28.6323C6.14211 27.8423 6.64678 27.069 7.11789 26.276C7.30849 25.955 7.54524 25.8302 7.92224 25.8421C10.2202 25.9152 12.5188 25.974 14.8174 26.0299C16.3224 26.0668 17.8269 26.103 19.3289 25.9485C21.115 25.7648 22.5176 24.9939 23.4718 23.4412C24.8311 21.2288 26.2223 19.0354 27.6026 16.8361C28.3506 15.6448 29.1059 14.4578 29.8521 13.2654C29.8958 13.1958 29.9342 13.0692 29.9006 13.0163C29.749 12.7803 29.5704 12.5616 29.3876 12.3179L29.387 12.3191ZM3.60976 28.7428C1.10918 23.8514 0.651859 18.803 2.56505 13.6494C4.47525 8.5029 8.04511 4.81929 13.1763 2.78221C18.9141 0.5044 24.55 0.951998 29.8311 4.1363C35.1128 7.3206 38.0227 12.1015 38.8079 18.183C39.0812 17.9553 39.2952 17.7253 39.1681 17.3419C39.1315 17.2307 39.1315 17.1077 39.1136 16.9906C38.7617 14.7057 38.0071 12.5598 36.8318 10.5637C35.0384 7.51676 32.5295 5.18129 29.5056 3.36593C27.3425 2.06772 24.9678 1.38949 22.4792 1.07504C20.2903 0.798638 18.1122 0.900878 15.9622 1.39187C12.2173 2.24724 8.97114 4.01801 6.33091 6.79097C2.18265 11.1498 0.425895 16.335 1.07621 22.3017C1.31057 24.4547 1.95369 26.4942 2.92947 28.4302C3.01458 28.599 3.10928 28.7631 3.19859 28.9277C3.35443 28.8576 3.48269 28.7999 3.60976 28.7423V28.7428ZM7.13946 17.868C7.33546 17.8008 7.45893 17.7485 7.58779 17.717C7.75142 17.6777 7.82874 17.591 7.8647 17.421C8.41133 14.8245 9.67421 12.6204 11.6461 10.8396C14.5249 8.23957 17.9252 7.17081 21.7875 7.63564C24.1383 7.91858 26.2528 8.8221 28.0689 10.329C30.8902 12.6692 32.4569 15.6662 32.6871 19.3255C32.7063 19.6257 32.7177 19.9264 32.7333 20.2415C32.8381 20.2272 32.9209 20.2005 33 20.2082C33.2661 20.2326 33.3116 20.1071 33.308 19.867C33.2643 17.1921 32.4707 14.7603 30.9387 12.5616C28.0174 8.36975 22.7207 6.21855 17.7088 7.19042C12.7508 8.1516 8.79133 11.7698 7.44514 16.5763C7.33186 16.9811 7.25035 17.3942 7.13886 17.8686L7.13946 17.868ZM10.4396 17.6355C9.09641 17.6956 7.4853 18.1444 6.27037 18.8517C5.96349 19.0306 5.68299 19.2577 5.40728 19.483C5.21368 19.6411 5.16393 19.8456 5.24605 20.103C5.40428 20.5975 5.53734 21.0998 5.66261 21.6039C5.71775 21.8256 5.84062 21.97 6.0528 22.0146C6.3435 22.0764 6.64198 22.1513 6.93568 22.1442C8.67745 22.1026 10.2616 21.5462 11.7301 20.6403C11.8805 20.5476 12.01 20.4174 12.1346 20.2902C12.3037 20.1178 12.3474 19.9217 12.2635 19.6786C12.0897 19.1739 11.9326 18.6627 11.7882 18.1485C11.7325 17.9506 11.6228 17.8293 11.4334 17.7937C11.1043 17.7306 10.7717 17.6879 10.4402 17.6361L10.4396 17.6355ZM28.4226 11.4649C28.3572 11.5636 28.2865 11.6682 28.2176 11.7734C26.498 14.4007 24.773 17.0245 23.0642 19.6589C22.7207 20.188 22.2508 20.4882 21.6551 20.6427C20.7392 20.8799 19.8006 20.8906 18.8668 20.8882C16.8451 20.8834 14.8234 20.8519 12.8023 20.8121C12.4769 20.8056 12.209 20.8454 11.9746 21.0838C11.8673 21.1931 11.7289 21.2918 11.585 21.3423C10.8939 21.5855 10.5121 22.1305 10.1711 22.7214C10.1004 22.8432 10.0081 22.9538 9.94512 23.0798C9.86301 23.2451 9.7755 23.4145 9.73834 23.5922C9.71676 23.695 9.75213 23.8591 9.82585 23.9215C9.94452 24.0226 10.1969 23.9275 10.2808 23.7931C10.6236 23.2445 10.973 22.6988 11.3081 22.1454C11.4208 21.9599 11.5526 21.8696 11.7792 21.8856C12.137 21.9112 12.4973 21.9171 12.8563 21.9213C14.459 21.9403 16.0611 21.9647 17.6638 21.9694C18.808 21.973 19.9552 22.042 21.0928 21.8434C22.0201 21.6818 22.81 21.3269 23.3381 20.4947C24.8293 18.1456 26.3392 15.8083 27.8418 13.4663C28.1822 12.9355 28.5209 12.4035 28.8637 11.8661C28.7145 11.7306 28.5778 11.6064 28.422 11.4643L28.4226 11.4649ZM38.7054 25.1139C38.6838 25.0991 38.6622 25.0842 38.6407 25.0699C38.4896 25.234 38.3452 25.4046 38.1851 25.5597C37.9939 25.7452 37.8723 25.961 37.7818 26.2124C36.7976 28.9515 35.2656 31.3541 33.133 33.3466C28.8637 37.3352 23.7918 39.0388 17.9515 38.4301C15.409 38.165 13.0379 37.3524 10.8256 36.0869C10.481 35.8895 10.1285 35.9817 9.7737 36.0066C15.2466 39.3562 21.0323 40.0903 27.0524 37.7643C33.006 35.4639 36.8078 31.1187 38.7054 25.1133V25.1139ZM9.37872 9.01291C9.67301 9.29407 9.98049 9.58831 10.252 9.84747C10.4516 9.68044 10.6224 9.53659 10.8082 9.38085C10.0446 8.64199 9.299 7.91977 8.62231 7.26472C8.40714 7.42224 8.22133 7.55777 8.03492 7.69389C8.3454 8.01072 8.62591 8.29663 8.90881 8.58493C8.7308 8.7585 8.55278 8.93207 8.30644 9.17221C8.04331 8.87144 7.7754 8.56591 7.49909 8.25027C7.30489 8.45178 7.14666 8.61584 6.98063 8.78762C7.74303 9.52411 8.48505 10.2416 9.19171 10.9246C9.38411 10.7569 9.55673 10.6065 9.72935 10.4562C9.56872 10.2933 9.42307 10.1453 9.27682 9.99846C9.12578 9.84688 8.97294 9.6959 8.80812 9.53184C8.99572 9.36124 9.17673 9.19658 9.37872 9.01291ZM21.9757 4.88229C21.9757 4.94174 21.9727 5.00118 21.9757 5.06062C22.0165 5.70556 22.3719 6.11571 23.012 6.25837C23.5964 6.38855 24.1173 6.14246 24.414 5.58668C24.6555 5.13433 24.7502 4.64869 24.6741 4.14224C24.592 3.59597 24.2773 3.23991 23.7295 3.10677C23.2038 2.97897 22.7477 3.08893 22.4049 3.52761C22.0938 3.92528 21.9907 4.3919 21.9745 4.88289L21.9757 4.88229ZM21.7516 5.93382C21.697 5.83515 21.6605 5.76382 21.6191 5.69546C21.3608 5.26926 21.1066 4.84068 20.8393 4.41984C20.7674 4.3069 20.768 4.23022 20.8465 4.12322C21.0575 3.83493 21.2571 3.53831 21.4585 3.24348C21.5478 3.11271 21.6317 2.97897 21.7444 2.80599C21.4908 2.80599 21.2888 2.79172 21.0905 2.81253C21.0035 2.82144 20.8957 2.88207 20.8471 2.95281C20.6373 3.26013 20.4467 3.57992 20.2483 3.89437C20.2172 3.9443 20.1794 3.99007 20.1207 4.07151V2.79588H19.3822V5.90529H20.0889V4.54466C20.1716 4.58746 20.2046 4.63442 20.2315 4.68435C20.4287 5.05111 20.6217 5.41965 20.8249 5.78343C20.8597 5.84525 20.9334 5.92253 20.9939 5.92669C21.2313 5.94333 21.4711 5.93323 21.7522 5.93323L21.7516 5.93382ZM12.4571 4.53813C12.5242 4.62491 12.5722 4.68792 12.6219 4.74974C13.1254 5.37626 13.6283 6.00277 14.1323 6.62929C14.5129 7.10185 14.5117 7.0971 15.0734 6.86409C15.1992 6.81178 15.234 6.75233 15.2208 6.61562C15.1441 5.84822 15.0799 5.07964 15.0098 4.31106C14.987 4.06259 14.9583 3.81472 14.9307 3.54604C14.7209 3.63045 14.5369 3.69346 14.3649 3.77965C14.3127 3.8058 14.257 3.89972 14.2636 3.95619C14.3026 4.30214 14.3601 4.64571 14.4098 4.99048C14.4632 5.35902 14.5141 5.72815 14.5669 6.09669C14.48 6.04617 14.4308 5.98435 14.3841 5.91955C14.0191 5.41251 13.6576 4.9031 13.2866 4.40022C13.2441 4.34256 13.1368 4.27718 13.0828 4.29322C12.8791 4.35326 12.6843 4.4454 12.4583 4.53753L12.4571 4.53813ZM27.9748 4.56963C27.7776 4.48938 27.6074 4.43054 27.4474 4.35148C27.3161 4.28609 27.2472 4.33246 27.1711 4.43767C26.8097 4.93876 26.4422 5.4357 26.076 5.93382C26.0281 5.99921 25.9759 6.06221 25.8878 6.17456C25.8932 6.05092 25.8908 5.99921 25.8986 5.94809C25.9945 5.32454 26.0964 4.70159 26.1845 4.07686C26.1959 3.99483 26.1653 3.85633 26.109 3.82482C25.922 3.72139 25.7146 3.65541 25.494 3.56685C25.3874 4.62491 25.2819 5.65742 25.1848 6.69111C25.18 6.74282 25.2351 6.82723 25.2855 6.85339C25.6695 7.05707 25.9985 6.9905 26.2726 6.65366C26.8324 5.9677 27.3928 5.28174 27.9742 4.56963H27.9748ZM33.3536 8.76563C32.9418 8.34003 32.5319 7.91561 32.1117 7.48109C31.3427 8.21223 30.5941 8.92434 29.8371 9.64418C30.277 10.0989 30.6996 10.5358 31.1006 10.9501C31.245 10.8235 31.3709 10.7129 31.5027 10.5976C31.2372 10.3206 30.9813 10.0543 30.7146 9.77614C30.919 9.58296 31.1054 9.40701 31.2828 9.23938C31.5465 9.48726 31.7904 9.71611 32.047 9.95744C32.1627 9.84807 32.2855 9.73216 32.4168 9.60733C32.171 9.35054 31.9361 9.10504 31.6897 8.84707C31.8726 8.67528 32.038 8.52014 32.2064 8.36261C32.4815 8.62654 32.7374 8.87203 33.006 9.12942C33.1145 9.01529 33.2259 8.89878 33.353 8.76563H33.3536ZM31.7892 17.2539C31.1569 18.3435 30.524 19.4331 29.8695 20.5607C30.6612 20.4798 31.4026 20.4038 32.1513 20.3271C32.192 19.275 32.0691 18.265 31.7892 17.2533V17.2539ZM31.1419 7.45137C31.2324 7.34794 31.3337 7.24749 31.4134 7.13217C31.4464 7.08461 31.462 6.98297 31.4332 6.94314C31.1018 6.48425 30.69 6.14008 30.0834 6.14959C29.4289 6.16029 29.007 6.54904 28.6899 7.0644C28.0653 8.07848 28.6006 9.06106 29.719 9.39512C29.8287 9.23522 29.9402 9.07294 30.0547 8.90591C29.9042 8.85182 29.7807 8.81794 29.6669 8.76444C29.2599 8.57244 29.0813 8.22233 29.1856 7.79435C29.2821 7.39906 29.5242 7.10126 29.8838 6.90986C30.1841 6.74996 30.4832 6.78027 30.7397 7.00377C30.883 7.1286 30.9963 7.28672 31.1419 7.45196V7.45137ZM12.4655 7.34735C12.339 7.49476 12.2473 7.62197 12.1346 7.72837C11.8985 7.95187 11.6168 8.01369 11.3057 7.91323C10.8939 7.78008 10.4953 7.24451 10.4738 6.81118C10.4582 6.49911 10.5835 6.25837 10.8526 6.1068C11.0162 6.01466 11.199 5.957 11.389 5.87676C11.3087 5.74896 11.232 5.61402 11.1403 5.48979C11.1139 5.45472 11.033 5.42619 10.9922 5.43986C10.4768 5.60748 10.0368 5.87438 9.84143 6.40995C9.61067 7.043 9.84383 7.57798 10.2538 8.04936C10.9623 8.8649 11.9506 8.87976 12.7628 7.91799C12.7945 7.88054 12.8059 7.78662 12.7808 7.74918C12.6873 7.60949 12.5752 7.48287 12.4661 7.34675L12.4655 7.34735ZM17.3773 3.58884C17.5056 4.44837 17.6291 5.27877 17.7555 6.12701C18.0175 6.0854 18.2422 6.04914 18.4736 6.01228C18.3483 5.14919 18.2278 4.317 18.1062 3.48006C18.3513 3.43964 18.5635 3.40397 18.7853 3.36712C18.7553 3.18285 18.7283 3.0176 18.6972 2.82679C17.9983 2.92785 17.3216 3.02592 16.6215 3.12757C16.6479 3.31481 16.6707 3.47947 16.6965 3.66433C16.926 3.63877 17.1382 3.61499 17.3779 3.58824L17.3773 3.58884ZM16.9362 6.28453C16.6659 5.25915 16.4034 4.26529 16.1384 3.26131C15.8915 3.32729 15.6769 3.38495 15.4342 3.44974C15.7021 4.46561 15.9652 5.46423 16.2307 6.47117C16.4801 6.40519 16.6947 6.34813 16.9356 6.28393L16.9362 6.28453ZM27.5499 7.96079C28.0761 7.04954 28.591 6.1591 29.116 5.24964C28.8997 5.12541 28.7025 5.01188 28.4849 4.88705C27.9581 5.79829 27.4408 6.69349 26.9175 7.59879C27.1327 7.72183 27.3257 7.83239 27.5493 7.96079H27.5499ZM8.42092 22.5371C8.533 22.9241 8.65168 23.2968 8.74698 23.676C8.79912 23.8841 8.913 23.9328 9.11799 23.8793C9.10361 23.207 9.54654 22.7143 9.86241 22.1371C9.37272 22.2732 8.922 22.398 8.42092 22.5371ZM7.24915 22.6637C7.35224 23.0459 7.44334 23.3943 7.54224 23.7402C7.55303 23.7783 7.60697 23.8288 7.64353 23.8306C7.81076 23.8401 7.97918 23.8347 8.16079 23.8347C8.04931 23.4163 7.94382 23.0192 7.83593 22.6156C7.64893 22.6304 7.47271 22.6447 7.24855 22.6631L7.24915 22.6637ZM16.154 2.58724C15.5846 2.64371 15.4552 2.77151 15.4941 3.20306C15.9359 3.24348 16.0078 2.89515 16.154 2.58724Z" fill="white"/>
<path d="M21.231 18.823C19.9094 17.1021 18.4541 15.5668 16.686 14.262C16.9827 14.1954 17.232 14.1419 17.4802 14.0831C18.2587 13.8982 19.0397 13.7211 19.762 13.3632C19.9142 13.2878 20.0616 13.1909 20.1857 13.0767C20.3817 12.8966 20.3847 12.6898 20.1785 12.521C19.9963 12.3718 19.7883 12.2428 19.5732 12.1453C18.7179 11.7553 17.8134 11.5259 16.8838 11.3963C16.8268 11.3886 16.7303 11.4629 16.6962 11.5235C16.3779 12.0948 16.0698 12.6719 15.7576 13.2467C15.7228 13.3109 15.6832 13.3728 15.6455 13.4352C15.6251 13.4316 15.6041 13.4274 15.5837 13.4239C15.7294 12.2059 15.8744 10.9874 16.0249 9.72778C16.3545 9.86628 16.647 9.98873 16.9395 10.1124C18.2815 10.6783 19.6277 11.234 20.9613 11.8184C21.3197 11.9753 21.665 12.1881 21.9712 12.4306C22.5389 12.8794 22.4969 13.3817 21.8879 13.7817C21.2922 14.1728 20.6125 14.3571 19.9316 14.5337C19.723 14.5877 19.5126 14.6347 19.3286 14.6793C19.9945 15.5971 20.6634 16.5196 21.3473 17.4624C21.7213 17.1949 22.1007 16.9232 22.4801 16.6516C22.4921 16.6605 22.5041 16.6688 22.5167 16.6777C22.0959 17.3803 21.6752 18.0823 21.231 18.8242V18.823Z" fill="white"/>
<path d="M5.74388 19.5137C5.7205 19.5993 5.67076 19.6795 5.69053 19.7342C5.7271 19.8358 5.79183 19.9363 5.86975 20.0118C5.96385 20.1027 6.05315 20.0451 6.13946 19.9648C6.83354 19.3175 7.56657 18.7201 8.3967 18.2487C8.4938 18.1935 8.59509 18.1453 8.69579 18.0954C8.71317 18.0865 8.73594 18.0876 8.81206 18.074C8.08443 18.7064 7.46468 19.3674 6.93783 20.1764C8.5897 20.0564 10.0797 19.6343 11.3714 18.6405C11.3834 18.6553 11.396 18.6702 11.4079 18.6844C11.2575 18.8164 11.119 18.9656 10.9548 19.0779C10.1313 19.6403 9.21604 19.9987 8.25165 20.2388C7.58095 20.4053 6.90247 20.5147 6.20779 20.4166C6.07533 20.3976 5.94107 20.3702 5.817 20.3221C5.4364 20.1729 5.39504 19.7853 5.74328 19.5143L5.74388 19.5137Z" fill="white"/>
<path d="M24.0251 4.34503C23.9142 4.70237 23.8267 5.06982 23.6852 5.41468C23.5683 5.69949 23.3345 5.80057 23.0941 5.74468C22.871 5.69354 22.7271 5.50446 22.7068 5.20598C22.6768 4.7755 22.7631 4.36286 22.9478 3.9746C23.0941 3.66661 23.3057 3.5471 23.5605 3.60001C23.8111 3.65234 23.949 3.8545 23.964 4.19281C23.9658 4.23741 23.964 4.282 23.964 4.32659C23.9844 4.33254 24.0048 4.33849 24.0257 4.34503H24.0251Z" fill="white"/>
</g>
<g clip-path="url(#clip2_4072_16093)">
<path d="M107.541 18.5111C107.789 16.225 108.084 13.971 108.408 11.6941C109.73 12.2156 111.034 12.7211 112.327 13.2427C114.369 14.0698 116.445 14.8211 118.455 15.7126C119.078 15.9883 119.667 16.3307 120.156 16.7994C120.936 17.5507 120.887 18.279 120.008 18.9293C119.307 19.4508 118.482 19.7449 117.645 20.0114C116.693 20.317 115.714 20.5376 114.734 20.7352C114.71 20.7788 114.717 20.8156 114.754 20.8501C116.094 22.1551 117.103 23.6876 118.185 25.1719C118.345 25.3901 118.477 25.721 118.691 25.7784C118.914 25.8382 119.147 25.528 119.373 25.3787C119.896 25.034 120.411 24.6756 121 24.3677C120.175 25.6636 119.351 26.9571 118.494 28.3035C115.937 25.1627 113.09 22.3366 109.671 19.9678C110.43 19.8069 111.139 19.6645 111.846 19.5014C113.132 19.2073 114.408 18.8902 115.608 18.3526C115.915 18.2147 116.207 18.0539 116.452 17.8287C116.845 17.468 116.843 17.1164 116.447 16.7603C116.109 16.4547 115.687 16.264 115.265 16.0871C113.593 15.3841 111.834 14.9728 110.027 14.7063C109.819 14.6764 109.779 14.7798 109.708 14.9016C109.068 16.0182 108.427 17.1325 107.782 18.2446C107.728 18.3388 107.698 18.4628 107.536 18.5088L107.541 18.5111Z" fill="white"/>
<path d="M65.0868 18.5664C65.0205 17.923 64.4733 17.5347 63.5971 17.5324C60.8681 17.5255 58.1391 17.5324 55.41 17.5278C55.2162 17.5278 55.118 17.5531 55.1376 17.7645C55.1622 18.0379 55.0984 18.309 55.0272 18.5755C54.5364 20.4251 54.0553 22.277 53.5473 24.122C53.2528 25.1904 53.0761 26.2909 52.5215 27.3134C53.6283 27.3134 54.7106 27.3111 55.7953 27.3156C55.9524 27.3156 55.9794 27.2628 55.9769 27.1295C55.972 26.9205 55.9647 26.7068 56.0187 26.5C56.3058 25.4017 56.5905 24.3035 56.8727 23.2052C56.912 23.0536 56.9881 22.9892 57.1721 22.9915C57.7832 23.0053 58.3943 23.0053 59.0054 22.9915C59.2066 22.987 59.2582 23.0743 59.2778 23.2213C59.3293 23.5866 59.3809 23.9519 59.4324 24.315C59.5698 25.2524 59.7073 26.1875 59.8472 27.1249C59.8643 27.2375 59.9061 27.3134 60.0607 27.3134C61.1552 27.3088 62.2498 27.3111 63.3959 27.3111C63.1186 27.0101 62.9836 26.6884 62.9247 26.3484C62.7529 25.3328 62.6032 24.3127 62.4437 23.2948C62.4142 23.1133 62.4388 23.0283 62.6817 22.9892C63.6119 22.8445 64.2156 22.3367 64.4536 21.4751C64.6254 20.8479 64.7825 20.216 64.9616 19.5888C65.0598 19.2487 65.1212 18.911 65.0868 18.5618V18.5664ZM62.0461 19.3085C61.8841 19.9288 61.7246 20.5492 61.5454 21.1626C61.408 21.636 61.2534 21.7302 60.7282 21.7302C59.587 21.7302 58.4434 21.7302 57.2727 21.7302C57.528 20.7812 57.7783 19.8829 58.009 18.9776C58.0532 18.8076 58.1243 18.7571 58.301 18.7571C59.3981 18.7639 60.4975 18.7571 61.5945 18.7616C62.0068 18.7616 62.1418 18.9317 62.0461 19.3062V19.3085Z" fill="white"/>
<path d="M80.7321 17.5278C79.8609 17.5347 78.9872 17.5324 78.116 17.5278C77.9933 17.5278 77.9221 17.5485 77.9319 17.6818C77.9589 18.0333 77.8706 18.3734 77.7847 18.7111C77.608 19.4188 77.4116 20.1218 77.2251 20.8249C77.1196 20.8088 77.1319 20.7606 77.1245 20.7215C77.0042 20.2022 76.911 20.131 76.3588 20.1287C75.2495 20.1287 74.1378 20.1287 73.0285 20.1287C71.691 20.1287 70.913 20.6985 70.5817 21.9163C70.3584 22.7388 70.1179 23.5591 69.9166 24.3862C69.7645 25.0088 69.5019 25.6131 69.5509 26.2702C69.5878 26.7826 69.8086 27.079 70.324 27.2237C70.5375 27.2835 70.7682 27.3065 70.9891 27.3088C72.1794 27.3156 73.3672 27.3088 74.5574 27.3156C74.9108 27.3156 75.1882 27.1824 75.4213 26.9526C75.5047 26.8699 75.5489 26.7504 75.6765 26.6976C75.6765 26.8492 75.6814 26.9871 75.6765 27.1249C75.6692 27.249 75.6913 27.3179 75.8557 27.3179C76.6827 27.3111 77.5098 27.3133 78.3369 27.3179C78.4399 27.3179 78.4964 27.3019 78.5086 27.1847C78.624 25.9555 79.0363 24.7837 79.3455 23.5912C79.8511 21.6428 80.3787 19.7014 80.9039 17.7576C80.9481 17.5945 80.9383 17.5278 80.7346 17.5301L80.7321 17.5278ZM76.9748 21.7485C76.6337 23.0582 76.2876 24.3678 75.9342 25.6752C75.8262 26.0795 75.6864 26.1691 75.2446 26.1714C74.8372 26.1714 74.4298 26.1714 74.0224 26.1714C73.593 26.1714 73.161 26.176 72.7315 26.1714C72.4297 26.1668 72.3217 26.0405 72.3953 25.7648C72.7487 24.423 73.1021 23.0812 73.4629 21.7416C73.5635 21.374 73.75 21.2431 74.1697 21.2385C74.9624 21.2316 75.7551 21.2316 76.5453 21.2385C76.9576 21.2431 77.068 21.3763 76.9699 21.7485H76.9748Z" fill="white"/>
<path d="M106.798 20.1564C106.611 20.1196 106.415 20.1334 106.221 20.1334C104.228 20.1334 102.233 20.1334 100.24 20.1334C99.6987 20.1334 99.3339 20.367 99.1457 20.8342C99.0165 21.1543 99.1293 21.2891 99.4844 21.2385C99.5408 21.2316 99.5973 21.2339 99.6537 21.2271C100.397 21.1443 101.146 21.1926 101.892 21.1857C102.788 21.1765 103.681 21.1811 104.577 21.1857C104.756 21.1857 104.957 21.1788 104.989 21.4132C105.068 21.9784 104.722 22.3414 104.108 22.3414C102.714 22.346 101.323 22.3414 99.9286 22.3598C99.3175 22.369 98.8365 22.6378 98.4855 23.1088C97.926 23.8647 97.7395 24.7355 97.575 25.6155C97.5358 25.8223 97.499 26.0382 97.5211 26.2427C97.6094 27.0055 97.9922 27.3111 98.8463 27.3134C100.081 27.318 101.315 27.3134 102.55 27.3157C103.023 27.3157 103.399 27.1434 103.686 26.7942C103.737 26.7298 103.752 26.6333 103.868 26.6172C103.922 26.7643 103.843 26.9021 103.826 27.04C103.799 27.2583 103.868 27.3272 104.11 27.3203C104.8 27.3042 105.492 27.3088 106.184 27.3203C106.363 27.3226 106.432 27.2881 106.447 27.1043C106.481 26.6862 106.565 26.2726 106.675 25.8659C107.036 24.5103 107.438 23.1639 107.745 21.7992C107.944 20.9146 107.779 20.3563 106.8 20.161L106.798 20.1564ZM104.415 23.674C104.226 24.3311 104.066 24.9951 103.887 25.6545C103.777 26.0589 103.615 26.1715 103.173 26.1715C102.358 26.1715 101.541 26.1738 100.726 26.1715C100.356 26.1715 100.27 26.0612 100.361 25.7166C100.52 25.1169 100.689 24.5195 100.844 23.9176C100.927 23.5867 101.141 23.4419 101.497 23.4488C101.939 23.4557 102.38 23.4488 102.822 23.4488C103.286 23.4488 103.75 23.4534 104.216 23.4465C104.405 23.4442 104.476 23.4672 104.417 23.674H104.415Z" fill="white"/>
<path d="M89.2136 20.1608C89.0492 20.1286 88.8774 20.1309 88.7081 20.1309C86.8969 20.1309 85.0833 20.1286 83.2721 20.1309C82.0916 20.1309 81.3284 20.6295 80.9922 21.6841C80.7075 22.5756 80.4719 23.4808 80.2436 24.3861C80.0817 25.0363 79.8142 25.6727 79.8829 26.3643C79.9172 26.6929 80.0669 26.9387 80.3713 27.1064C80.6731 27.2742 81.0093 27.3063 81.3456 27.3086C82.4671 27.3155 83.5887 27.3109 84.7078 27.3109C85.6919 27.3109 86.6785 27.3109 87.6626 27.3109C88.191 27.3109 88.5567 27.0758 88.7596 26.6056C88.8259 26.4516 89.0173 26.277 88.9314 26.1529C88.8308 26.0059 88.6074 26.169 88.4332 26.1667C86.6441 26.1598 84.855 26.1667 83.0659 26.1667C82.7592 26.1667 82.6512 26.0358 82.7224 25.7646C82.8156 25.3993 82.9555 25.0409 83.0144 24.671C83.0586 24.3907 83.1911 24.347 83.4586 24.3493C85.3606 24.3585 87.2626 24.3539 89.167 24.3562C89.3388 24.3562 89.4664 24.3746 89.5204 24.1402C89.7069 23.3315 89.9548 22.5342 90.1487 21.7277C90.3573 20.8661 90.0235 20.3239 89.2112 20.1608H89.2136ZM87.3092 21.7553C87.2012 22.1827 87.0711 22.6077 86.9754 23.0374C86.9362 23.212 86.8503 23.2534 86.676 23.2511C86.1655 23.2419 85.6575 23.2488 85.1471 23.2488C84.6489 23.2488 84.1507 23.2419 83.6525 23.2511C83.4807 23.2534 83.4022 23.2189 83.4512 23.0466C83.5739 22.6008 83.6868 22.1528 83.812 21.7071C83.9004 21.3923 84.1261 21.2361 84.4746 21.2361C85.2796 21.2361 86.0821 21.2292 86.8871 21.2384C87.2994 21.2429 87.4049 21.3785 87.3092 21.7553Z" fill="white"/>
<path d="M97.9923 21.4981C98.088 21.1098 98.1715 20.7169 98.2967 20.3355C98.3629 20.1287 98.2746 20.1287 98.1126 20.131C97.3076 20.1356 96.5051 20.131 95.7001 20.1402C95.224 20.1448 94.8191 20.2919 94.5786 20.7077C94.554 20.7606 94.5295 20.8134 94.4682 20.9467C94.4534 20.7422 94.5074 20.5607 94.5074 20.5607C94.5074 20.5607 94.7087 20.1333 94.3307 20.1333C93.5503 20.1333 92.7674 20.1379 91.987 20.131C91.8324 20.131 91.798 20.1839 91.8005 20.3171C91.8078 20.795 91.6802 21.2569 91.5526 21.7118C91.0201 23.5797 90.6568 25.4914 89.9329 27.318C90.7329 27.318 91.5256 27.318 92.3159 27.318C92.5515 27.318 92.8509 27.3823 93.0055 27.2743C93.1306 27.187 93.0816 26.8837 93.111 26.6769C93.1159 26.6471 93.1282 26.6149 93.1331 26.585C93.4718 25.0663 93.9135 23.5706 94.3185 22.0656C94.4215 21.6819 94.5835 21.5555 95.0007 21.5601C95.9038 21.5693 96.8094 21.5004 97.7027 21.6773C97.8696 21.7095 97.9531 21.6543 97.9923 21.5027V21.4981Z" fill="white"/>
<path d="M69.1534 20.1265C68.373 20.138 67.5925 20.1403 66.8121 20.1265C66.5667 20.1219 66.471 20.177 66.4784 20.416C66.4833 20.6021 66.4342 20.7928 66.3876 20.9743C65.8452 23.0858 65.3543 25.2111 64.6304 27.3134C65.6022 27.3134 66.5741 27.3088 67.5484 27.318C67.7275 27.318 67.7521 27.2514 67.7447 27.1112C67.7275 26.7597 67.8232 26.4196 67.9091 26.0865C68.4024 24.1955 68.9031 22.3069 69.416 20.4229C69.4872 20.1632 69.4111 20.1242 69.1558 20.1265H69.1534Z" fill="white"/>
<path d="M67.1533 19.4095C67.8993 19.4026 68.6454 19.4003 69.3915 19.4095C69.5927 19.4118 69.6688 19.3383 69.7105 19.1729C69.8111 18.7547 69.9216 18.3365 70.0344 17.923C70.0762 17.7713 70.0394 17.7139 69.8651 17.7162C69.4798 17.7254 69.097 17.7185 68.7117 17.7185C68.3509 17.7185 67.9877 17.7346 67.6269 17.7116C67.4011 17.6978 67.3054 17.7713 67.2588 17.9643C67.1631 18.3618 67.0747 18.7639 66.9496 19.1545C66.8808 19.3682 66.9397 19.4095 67.1557 19.4072L67.1533 19.4095Z" fill="white"/>
</g>
</g>
<defs>
<clipPath id="clip0_4072_16093">
<rect width="121" height="40" fill="white"/>
</clipPath>
<clipPath id="clip1_4072_16093">
<rect width="41.7313" height="40.002" fill="white" transform="translate(0 -0.000976562)"/>
</clipPath>
<clipPath id="clip2_4072_16093">
<rect width="68.4785" height="16.6117" fill="white" transform="translate(52.5215 11.6941)"/>
</clipPath>
</defs>
</svg>
