<svg width="98" height="40" viewBox="0 0 98 40" fill="none" xmlns="http://www.w3.org/2000/svg">
<g opacity="0.9">
<path d="M29.7975 16.5132C29.7885 16.3989 29.7444 16.2902 29.6714 16.2024C29.5984 16.1146 29.5001 16.052 29.3903 16.0233C28.4891 15.7703 27.5617 15.6248 26.627 15.5897C26.0921 14.4397 25.3795 13.383 24.5158 12.4593C27.8123 9.53466 26.9058 6.3234 26.2271 4.86597C26.1876 4.78494 26.1289 4.71497 26.0564 4.66221C25.9838 4.60946 25.8995 4.57554 25.8109 4.56344C25.7223 4.55135 25.6322 4.56144 25.5483 4.59284C25.4645 4.62423 25.3896 4.67597 25.3302 4.74349C24.7655 5.36811 23.6141 6.18868 21.4908 6.0907C16.74 5.8727 15.1717 3.69512 11.2814 4.10173C6.54023 4.59163 5.90517 9.83104 5.90517 9.83104C5.90517 9.83104 1.28524 10.8402 1.19798 15.9425C1.1495 18.7373 2.74685 21.0374 3.31888 21.7698C2.82067 22.4831 2.58099 23.3482 2.64019 24.2192C2.64234 24.84 2.78629 25.4519 3.06083 26.0072C3.33537 26.5625 3.73309 27.0462 4.223 27.4207C4.71625 27.7749 5.27474 28.0257 5.86548 28.1582C6.45622 28.2907 7.06725 28.3023 7.6625 28.1923C8.33634 30.1518 11.0559 36.2118 18.5967 36.2118C19.0443 36.2118 19.5097 36.1898 19.9928 36.1457C24.2443 35.7513 27.1142 33.4807 28.2971 29.5811C28.9636 27.3766 29.0242 24.9271 28.7067 22.5389C29.0379 22.4016 29.332 22.1867 29.5648 21.9118C30.1586 21.128 29.9041 17.6767 29.7975 16.5132ZM25.3424 15.7147C23.745 15.9915 22.0265 16.6602 21.6605 16.6945L21.2533 16.719C21.0375 16.7312 20.337 16.6136 19.4184 16.4936C18.1922 16.305 16.9523 16.2231 15.7122 16.2487C14.3947 16.3242 13.0828 16.478 11.7831 16.7092L11.7274 16.7287V16.7165L11.6789 16.7459C11.6358 16.7665 11.5951 16.792 11.5577 16.8218L10.3748 17.5542C10.3748 17.2015 10.3748 16.8512 10.3748 16.5083C10.3592 15.3814 10.0986 14.2717 9.6113 13.2579C15.6274 15.749 21.1199 14.8157 23.6844 13.4024C24.3541 14.0755 24.9137 14.8518 25.3424 15.7024V15.7147ZM19.525 21.2211C19.3166 22.0343 18.8463 23.1807 17.7822 23.4085C14.3524 24.1188 14.0543 23.0459 13.7125 22.2033C13.3791 21.4065 13.2068 20.5504 13.2059 19.6853C13.2059 18.7765 13.3538 18.2401 13.6907 17.951C13.9065 17.7726 14.1662 17.6566 14.4421 17.6155C15.5896 17.4225 16.7564 17.3748 17.9156 17.4734C19.0887 17.6179 19.7068 17.9927 19.748 18.436C19.7996 19.3668 19.7212 20.3002 19.5153 21.2088L19.525 21.2211ZM27.0924 29.2064C26.0574 32.6185 23.6335 34.5217 19.8862 34.8695C10.8596 35.695 8.7993 27.6436 8.71204 27.2909L8.55934 26.6491L7.93155 26.8206C6.82141 27.1219 5.75005 26.9626 4.98167 26.387C4.64726 26.1276 4.37661 25.7938 4.19078 25.4114C4.00496 25.029 3.90898 24.6085 3.91031 24.1825C3.88123 23.1782 4.21815 22.4483 4.90896 22.0147C5.80095 21.4538 6.99835 21.542 7.52191 21.8212L7.69401 21.9143C7.95896 22.0517 8.19181 22.2448 8.37699 22.4805C8.56217 22.7162 8.69541 22.9891 8.76779 23.2811C8.7784 23.3174 8.79985 23.3495 8.82922 23.373C8.85859 23.3966 8.89443 23.4103 8.93185 23.4125C8.96926 23.4146 9.00641 23.405 9.03823 23.385C9.07004 23.365 9.09495 23.3356 9.10956 23.3007C9.53186 22.2394 9.85169 21.1394 10.0646 20.0159L11.4801 18.9627C11.7225 19.4305 12.1564 23.4354 13.4192 24.2633C14.19 24.7532 15.0287 25.1059 17.4889 24.7385C18.8463 24.5352 19.6365 24.0233 20.3031 22.7544C20.7879 21.8604 21.0666 19.7832 21.0666 19.7832C21.1369 18.9504 21.4859 18.8353 21.6653 18.8255C21.6653 18.8255 22.1137 18.7569 22.4385 19.7073C22.4385 19.7073 22.7948 20.6699 23.2093 21.4881C23.522 22.2376 23.7765 22.7912 23.8371 23.3276C23.9131 23.7976 23.8072 24.2791 23.5414 24.6724C23.2522 25.0585 22.8332 25.3242 22.3634 25.4195C21.9203 25.5184 21.4692 25.5758 21.0157 25.5909C20.9775 25.5922 20.9408 25.6057 20.9107 25.6295C20.8807 25.6533 20.8589 25.6862 20.8486 25.7233C20.8384 25.7605 20.8401 25.8 20.8536 25.8361C20.8671 25.8722 20.8916 25.903 20.9236 25.9241C21.3672 26.2057 22.5573 26.5952 23.602 26.2131C23.968 26.0392 25.3545 25.6056 24.8139 23.1292C25.3403 23.2448 25.885 23.2448 26.4113 23.1292C26.7821 23.0729 27.1069 23.0116 27.4051 22.9431C27.6547 25.3533 27.5505 27.646 27.0827 29.1941L27.0924 29.2064ZM28.8231 20.3074C28.7938 20.6211 28.6807 20.9208 28.4958 21.1745C28.3723 21.3298 28.221 21.4602 28.0498 21.5591H28.0353C27.7926 21.6969 27.5325 21.8008 27.2621 21.8677C26.8449 21.9761 26.4191 22.0466 25.9895 22.0784C25.1121 22.1494 24.3898 21.3044 24.0795 20.6087C23.7369 19.7954 23.5156 18.9353 23.4226 18.0564C23.3766 17.5273 24.4479 16.9174 25.8635 16.7728C25.9653 16.7728 26.0695 16.7532 26.1737 16.7483H26.4549H26.4961H26.7119H27.1603C27.8729 16.7728 28.1444 16.8831 28.2995 16.9933C28.554 17.1892 28.7552 17.6571 28.8643 18.3576C28.9501 19.0021 28.9329 19.6563 28.8134 20.2952L28.8231 20.3074Z" fill="#1D1D1B"/>
<path d="M25.6697 17.9827C25.2431 18.0096 24.9425 18.6587 24.9838 19.4328C25.025 20.2068 25.4201 20.8118 25.8467 20.7849C26.2733 20.7579 26.5738 20.1088 26.5326 19.3348C26.4914 18.5608 26.0987 17.9411 25.6697 17.9827Z" fill="#1D1D1B"/>
<path d="M17.0453 18.7741C16.5 18.7936 16.0758 19.5799 16.1194 20.5303C16.1631 21.4807 16.6212 22.2327 17.1665 22.2131C17.7119 22.1935 18.1361 21.4072 18.0925 20.4593C18.0488 19.5113 17.5883 18.7545 17.0453 18.7741Z" fill="#1D1D1B"/>
<path d="M5.28458 23.2149C5.26625 23.2271 5.25196 23.2445 5.24356 23.2649C5.23517 23.2854 5.23306 23.3079 5.2375 23.3296C5.24195 23.3512 5.25275 23.371 5.26849 23.3864C5.28424 23.4018 5.3042 23.412 5.32578 23.4158C5.81517 23.469 6.2802 23.659 6.66862 23.9645C7.06457 24.3433 7.35825 24.8179 7.52183 25.3435C7.53034 25.3623 7.54399 25.3782 7.56118 25.3893C7.57837 25.4005 7.59836 25.4064 7.61878 25.4064C7.6392 25.4064 7.6592 25.4005 7.67638 25.3893C7.69357 25.3782 7.70723 25.3623 7.71574 25.3435C7.9062 25.0062 7.97641 24.613 7.91465 24.2296C7.8529 23.8463 7.66291 23.4959 7.37639 23.237C7.07625 23.0069 6.7108 22.8805 6.33409 22.8766C5.95738 22.8726 5.5894 22.9912 5.28458 23.2149Z" fill="#1D1D1B"/>
<path d="M24.1909 28.6258C22.9661 29.0853 21.6554 29.2635 20.3539 29.1475C17.884 28.9026 16.4466 28.3196 15.7485 27.9448C15.7146 27.9267 15.6759 27.9201 15.638 27.9259C15.6001 27.9316 15.565 27.9495 15.5379 27.9769C15.5108 28.0043 15.4931 28.0398 15.4874 28.0781C15.4816 28.1164 15.4882 28.1555 15.5061 28.1898C16.0273 29.0838 17.341 30.6858 20.0873 30.7323C20.8881 30.7462 21.6831 30.5921 22.422 30.2797C23.1609 29.9673 23.8276 29.5034 24.38 28.9173C24.4036 28.887 24.4173 28.85 24.4189 28.8115C24.4206 28.773 24.4103 28.7349 24.3894 28.7027C24.3685 28.6705 24.338 28.6457 24.3024 28.6319C24.2668 28.6181 24.2278 28.6159 24.1909 28.6258Z" fill="#1D1D1B"/>
<path d="M48.3911 20.4985C49.9569 20.7091 51.1874 21.2447 52.0827 22.1053C52.5163 22.5102 52.8601 23.0033 53.0915 23.5521C53.323 24.101 53.4368 24.6931 53.4255 25.2896C53.4255 26.9063 52.7169 28.189 51.2997 29.1377C49.8826 30.0865 47.8756 30.5617 45.2788 30.5633H37.9344C37.8277 30.566 37.7226 30.5368 37.6323 30.4795C37.5419 30.4221 37.4702 30.3391 37.4263 30.2409C37.3823 30.1426 37.368 30.0334 37.3851 29.927C37.4021 29.8205 37.4499 29.7215 37.5223 29.6423L37.9271 29.1916C38.2281 28.8814 38.4014 28.4673 38.4119 28.033V14.3846C38.3998 13.9463 38.2271 13.5281 37.9271 13.2113L37.5393 12.7728C37.4693 12.6934 37.4236 12.5951 37.4078 12.4899C37.3921 12.3847 37.407 12.2771 37.4506 12.1803C37.4943 12.0834 37.5649 12.0015 37.6538 11.9445C37.7427 11.8875 37.8461 11.8579 37.9514 11.8592H44.794C46.9852 11.8592 48.6714 12.2984 49.8527 13.177C51.0339 14.0555 51.6245 15.1888 51.6245 16.5769C51.6461 17.4992 51.3361 18.3981 50.7519 19.1072C50.1407 19.8242 49.3096 20.3139 48.3911 20.4985ZM42.3313 14.6491V18.6271C42.3235 18.7968 42.3507 18.9664 42.4112 19.1249C42.4717 19.2835 42.5642 19.4276 42.6828 19.5481C42.8111 19.6662 42.9615 19.7574 43.125 19.8162C43.2885 19.8751 43.462 19.9005 43.6354 19.891H45.4606C45.821 19.9138 46.1822 19.8595 46.5205 19.7318C46.8588 19.604 47.1666 19.4056 47.4239 19.1495C47.6812 18.8934 47.8822 18.5854 48.0138 18.2455C48.1453 17.9056 48.2045 17.5415 48.1875 17.177C48.1875 16.0012 47.8707 15.0884 47.2373 14.4385C46.6039 13.7885 45.7474 13.4619 44.668 13.4587H43.4439C42.707 13.4636 42.3435 13.8579 42.3435 14.6491H42.3313ZM45.7248 28.9565C46.8915 28.9565 47.7802 28.6887 48.3911 28.153C49.0019 27.6174 49.3105 26.8663 49.317 25.8995C49.317 24.7385 48.8565 23.7064 47.9354 22.8034C47.0143 21.9004 45.7539 21.448 44.1541 21.4464H42.8719C42.7279 21.4464 42.5898 21.5042 42.4879 21.6071C42.3861 21.71 42.3289 21.8496 42.3289 21.9951V27.0581C42.3111 27.5537 42.4781 28.038 42.7967 28.4151C42.9485 28.5918 43.1374 28.732 43.3495 28.8256C43.5617 28.9193 43.7918 28.964 44.0232 28.9565H45.7248Z" fill="#1D1D1B"/>
<path d="M55.0908 30.5634C55.0208 30.5635 54.9523 30.5433 54.8934 30.505C54.8345 30.4668 54.7879 30.4122 54.7589 30.3478C54.73 30.2834 54.7201 30.212 54.7304 30.142C54.7407 30.0721 54.7707 30.0066 54.8169 29.9535L55.4859 29.1917C55.7963 28.8759 55.9743 28.4512 55.9828 28.0061V22.0515C55.9717 21.5954 55.7948 21.1594 55.4859 20.8267C55.3283 20.6406 55.1296 20.4103 54.9647 20.2217C54.9286 20.1795 54.9025 20.1294 54.8884 20.0754C54.8742 20.0214 54.8725 19.9649 54.8832 19.9101C54.894 19.8553 54.917 19.8037 54.9504 19.7592C54.9838 19.7148 55.0269 19.6786 55.0762 19.6535L58.7993 17.7698C58.9171 17.7015 59.0493 17.6623 59.1849 17.6555C59.3206 17.6487 59.4559 17.6744 59.5798 17.7306C59.6752 17.7885 59.7527 17.8722 59.8036 17.9721C59.8546 18.072 59.877 18.1844 59.8683 18.2964V28.0184C59.8749 28.243 59.9267 28.464 60.0205 28.6678C60.1142 28.8716 60.248 29.054 60.4136 29.2039C60.5809 29.3729 60.8742 29.6767 61.1408 29.9535C61.1902 30.0054 61.2235 30.0708 61.2364 30.1417C61.2493 30.2126 61.2413 30.2857 61.2134 30.352C61.1855 30.4183 61.1389 30.4748 61.0795 30.5146C61.02 30.5544 60.9503 30.5756 60.879 30.5756L55.0908 30.5634ZM59.7762 15.3987C59.2697 15.8466 58.611 16.0784 57.9389 16.0454C57.2583 16.0752 56.5917 15.8443 56.0725 15.3987C55.8384 15.1905 55.6529 14.9325 55.5293 14.6433C55.4056 14.354 55.3469 14.0407 55.3574 13.7257C55.3492 13.4151 55.4091 13.1064 55.5327 12.8219C55.6563 12.5373 55.8406 12.2839 56.0725 12.0797C56.5917 11.6342 57.2583 11.4032 57.9389 11.433C58.611 11.4 59.2697 11.6318 59.7762 12.0797C60.0016 12.2877 60.1801 12.5425 60.2993 12.8265C60.4185 13.1106 60.4757 13.4173 60.467 13.7257C60.478 14.0384 60.4219 14.3498 60.3027 14.6386C60.1835 14.9274 60.0038 15.1867 59.7762 15.3987Z" fill="#1D1D1B"/>
<path d="M90.0506 17.9142C90.1898 17.9168 90.3254 17.9597 90.4411 18.0379C90.5569 18.1161 90.648 18.2262 90.7037 18.3552C90.7593 18.4842 90.7772 18.6266 90.7551 18.7655C90.733 18.9045 90.6719 19.0341 90.579 19.1389L90.3584 19.3839C90.038 19.7181 89.77 20.0997 89.5634 20.5155L84.6356 31.3471C84.4078 31.8541 84.2163 32.2681 84.0612 32.5718C83.906 32.8755 83.6661 33.3066 83.334 33.8235C83.0682 34.2703 82.7482 34.6817 82.3814 35.0482C82.0333 35.3718 81.6375 35.6387 81.2082 35.8394C80.7555 36.0636 80.2581 36.1809 79.7539 36.1823C78.7651 36.2214 77.7933 35.9142 77.0028 35.3128C76.2837 34.7314 75.9234 34.0782 75.9217 33.3532C75.9121 33.1437 75.944 32.9343 76.0156 32.7374C76.0872 32.5406 76.197 32.3602 76.3386 32.2068C76.4894 32.0579 76.6692 31.9422 76.8666 31.8671C77.0639 31.7921 77.2746 31.7593 77.4851 31.7708C77.7004 31.7604 77.9151 31.7991 78.1136 31.8839C78.312 31.9686 78.4891 32.0974 78.6316 32.2607C78.9032 32.5728 79.0917 32.9496 79.1794 33.3556C79.2594 33.7382 79.3958 34.1065 79.5842 34.4481C79.6466 34.5913 79.7482 34.7135 79.877 34.8003C80.0059 34.8871 80.1566 34.9349 80.3114 34.938C81.1194 34.938 82.0146 33.7084 82.9971 31.2491L77.8075 20.4984C77.587 20.0736 77.3015 19.6867 76.9616 19.352L76.7531 19.1438C76.6517 19.0412 76.5826 18.9105 76.5545 18.7683C76.5264 18.6261 76.5406 18.4786 76.5953 18.3445C76.65 18.2104 76.7427 18.0957 76.8618 18.0147C76.9809 17.9338 77.121 17.8903 77.2646 17.8897H82.1899C82.2581 17.89 82.3248 17.9097 82.3824 17.9465C82.44 17.9832 82.4863 18.0356 82.5158 18.0977C82.5454 18.1598 82.5571 18.229 82.5496 18.2974C82.5421 18.3659 82.5158 18.4309 82.4735 18.4849L82.0833 18.9748C81.9465 19.1431 81.8406 19.3347 81.7706 19.5406C81.7197 19.717 81.7706 20.0501 81.9281 20.5425L84.9774 27.6827L87.7939 20.9123C87.9685 20.3147 87.9685 19.9015 87.7939 19.6729C87.5919 19.417 87.3553 19.1911 87.091 19.0017L86.4753 18.5437C86.4135 18.4979 86.3675 18.4334 86.344 18.3596C86.3206 18.2858 86.3209 18.2063 86.3448 18.1327C86.3687 18.059 86.4151 17.9949 86.4773 17.9495C86.5395 17.9041 86.6143 17.8797 86.6911 17.8799L90.0506 17.9142Z" fill="#1D1D1B"/>
<path d="M62.5589 30.5633C62.4892 30.563 62.421 30.5424 62.3625 30.504C62.304 30.4656 62.2576 30.4109 62.229 30.3466C62.2004 30.2823 62.1907 30.2111 62.2011 30.1414C62.2114 30.0716 62.2414 30.0064 62.2875 29.9534L62.9565 29.1916C63.2618 28.8735 63.4353 28.4493 63.4412 28.0061V15.0925C63.4356 14.6332 63.2631 14.1921 62.9565 13.8531L62.4353 13.2505C62.3987 13.2084 62.3722 13.1584 62.3578 13.1043C62.3434 13.0502 62.3415 12.9935 62.3523 12.9385C62.3631 12.8836 62.3863 12.8319 62.42 12.7874C62.4537 12.743 62.4971 12.707 62.5468 12.6822L66.2675 10.7961C66.386 10.7285 66.5185 10.6898 66.6544 10.683C66.7903 10.6762 66.9259 10.7015 67.0504 10.7569C67.1453 10.8152 67.2223 10.8989 67.2728 10.9988C67.3233 11.0988 67.3454 11.2109 67.3364 11.3227V28.0061C67.3435 28.2309 67.3958 28.4519 67.4899 28.6557C67.5841 28.8595 67.7182 29.0418 67.8842 29.1916C68.0515 29.3606 68.3423 29.6644 68.6114 29.9412C68.6608 29.9931 68.6941 30.0585 68.707 30.1294C68.7199 30.2003 68.7119 30.2734 68.684 30.3397C68.6561 30.406 68.6095 30.4625 68.5501 30.5023C68.4906 30.5421 68.4209 30.5633 68.3496 30.5633H62.5589Z" fill="#1D1D1B"/>
<path d="M70.0293 30.5633C69.9595 30.563 69.8913 30.5424 69.8328 30.504C69.7743 30.4656 69.728 30.4109 69.6994 30.3466C69.6707 30.2823 69.661 30.2111 69.6714 30.1413C69.6818 30.0716 69.7117 30.0064 69.7578 29.9534C70.0002 29.6742 70.2717 29.3655 70.4268 29.1916C70.7322 28.8735 70.9056 28.4493 70.9116 28.0061V15.0925C70.906 14.6332 70.7334 14.1921 70.4268 13.8531L69.9057 13.2505C69.8691 13.2084 69.8425 13.1584 69.8281 13.1043C69.8137 13.0502 69.8119 12.9935 69.8227 12.9385C69.8334 12.8836 69.8566 12.8319 69.8903 12.7874C69.924 12.743 69.9674 12.707 70.0172 12.6822L73.7378 10.7961C73.8563 10.7285 73.9888 10.6898 74.1247 10.683C74.2606 10.6762 74.3962 10.7015 74.5207 10.7569C74.6153 10.8156 74.692 10.8994 74.7424 10.9992C74.7929 11.099 74.8151 11.211 74.8068 11.3227V28.0061C74.8133 28.231 74.8653 28.4522 74.9595 28.656C75.0537 28.8599 75.1881 29.0422 75.3546 29.1916C75.5218 29.3606 75.8127 29.6644 76.0817 29.9412C76.1322 29.9925 76.1664 30.0578 76.18 30.1288C76.1937 30.1999 76.1861 30.2734 76.1583 30.3401C76.1305 30.4067 76.0838 30.4636 76.0239 30.5033C75.9641 30.5431 75.894 30.564 75.8224 30.5633H70.0293Z" fill="#1D1D1B"/>
</g>
</svg>
