<svg width="138" height="40" viewBox="0 0 138 40" fill="none" xmlns="http://www.w3.org/2000/svg">
<g clip-path="url(#clip0_3733_8072)">
<path d="M39.9125 20.9289H47.0942V18.5104H39.9125V12.6717H49.5293V10.2532H37.278V29.7495H49.9338V27.331H39.9125V20.9289Z" fill="#19171E"/>
<path d="M75.0992 10.2532H72.4899V29.7495H75.0992V10.2532Z" fill="#19171E"/>
<path d="M89.3559 10C83.8144 10 79.4385 14.4843 79.4385 20.0014C79.4385 25.5157 83.8144 30.0028 89.3559 30.0028C94.8973 30.0028 99.2703 25.5157 99.2703 20.0014C99.2703 14.4843 94.8973 10 89.3559 10ZM89.3559 27.5331C85.1991 27.5331 82.1011 24.1841 82.1011 20.0014C82.1011 15.8188 85.1991 12.4669 89.3559 12.4669C93.4986 12.4669 96.5825 15.8188 96.5825 20.0014C96.5853 24.1841 93.4986 27.5331 89.3559 27.5331Z" fill="#19171E"/>
<path d="M7.05142 10.2532H0.27417V29.7495H2.91148V23.2536H7.05423C11.2925 23.2536 14.2752 20.3058 14.2752 16.752C14.2724 13.201 11.2925 10.2532 7.05142 10.2532ZM6.9784 20.8379H2.91148V12.6689H6.9784C9.86849 12.6689 11.6127 14.4728 11.6127 16.752C11.6098 19.0339 9.82355 20.8379 6.9784 20.8379Z" fill="#19171E"/>
<path d="M127.812 10.2532H124.95L117.142 29.7495H119.942L121.81 25.0348H130.952L132.825 29.7495H135.623L127.812 10.2532ZM122.784 22.5679L126.379 13.3375L129.974 22.5679H122.784Z" fill="#19171E"/>
<path d="M62.6063 27.5331C58.4018 27.5331 55.1859 24.1841 55.1859 20.0014C55.1859 15.8188 58.4046 12.4669 62.6063 12.4669C64.7325 12.4669 66.0582 13.11 67.3192 13.7758L68.3781 11.6503C66.6704 10.6061 64.5443 10 62.5445 10C56.9834 10 52.5261 14.4843 52.5261 20.0014C52.5261 25.5157 56.9862 30.0028 62.5445 30.0028C64.6763 30.0028 66.9148 29.3228 68.687 28.1534L67.6366 26.0393C66.3165 26.8388 64.7886 27.5331 62.6063 27.5331Z" fill="#19171E"/>
<path d="M109.702 18.4678C107.061 17.5772 105.343 16.8488 105.343 14.9765C105.343 13.4941 106.48 12.4299 108.811 12.4299C110.426 12.4299 112.193 13.0218 113.218 13.4941L114.077 11.2861C112.836 10.6829 110.676 10 108.761 10C105.14 10 102.652 12.0088 102.652 15.0334C102.652 18.5787 105.89 19.9559 108.266 20.7554C110.727 21.5834 112.828 22.4057 112.828 24.4829C112.828 26.2697 111.286 27.5046 108.66 27.5046C106.458 27.5046 104.138 26.56 102.79 25.8486L101.891 28.0168C103.815 29.2005 106.407 30.0028 108.733 30.0028C112.62 30.0028 115.53 27.7778 115.53 24.4829C115.53 21.0115 112.569 19.4352 109.702 18.4678Z" fill="#19171E"/>
<path d="M32.1298 16.3536C32.1298 13.0672 29.5037 10.2532 25.6867 10.2532H18.2466V29.7495H20.8811V22.4427H24.9368L29.6357 29.7495H32.7561V29.7069L27.7398 22.05C30.3098 21.3814 32.1298 19.0197 32.1298 16.3536ZM20.8811 20.027V12.6689H25.6081C27.9561 12.6689 29.4981 14.2993 29.4981 16.3536C29.4981 18.1035 28.0881 20.027 25.5716 20.027H20.8811V20.027Z" fill="#19171E"/>
</g>
<defs>
<clipPath id="clip0_3733_8072">
<rect width="136" height="20" fill="white" transform="translate(0 10)"/>
</clipPath>
</defs>
</svg>
