<svg width="165" height="40" viewBox="0 0 165 40" fill="none" xmlns="http://www.w3.org/2000/svg">
<g opacity="0.9">
<g clip-path="url(#clip0_3730_7955)">
<path d="M16.6309 3C7.4451 3 0 10.4451 0 19.6309C0 28.8166 7.4451 36.2617 16.6309 36.2617C25.8166 36.2617 33.2617 28.8166 33.2617 19.6309C33.2617 10.4451 25.8166 3 16.6309 3ZM16.6309 35.8445C7.67327 35.8445 0.417238 28.5884 0.417238 19.6309C0.417238 10.6733 7.67327 3.41724 16.6309 3.41724C25.5884 3.41724 32.8445 10.6733 32.8445 19.6309C32.8445 28.5884 25.5884 35.8445 16.6309 35.8445Z" fill="white"/>
<path d="M16.6308 4.55786C8.30563 4.55786 1.55811 11.3054 1.55811 19.6306C1.55811 27.9558 8.30563 34.7033 16.6308 34.7033C24.9561 34.7033 31.7036 27.9558 31.7036 19.6306C31.7036 11.3054 24.9561 4.55786 16.6308 4.55786ZM16.6308 33.3734C9.04232 33.3734 2.89457 27.2191 2.89457 19.6371C2.89457 12.0486 9.04232 5.90085 16.6308 5.90085C24.2194 5.90085 30.3671 12.0486 30.3671 19.6371C30.3671 27.2191 24.2194 33.3734 16.6308 33.3734Z" fill="white"/>
<path d="M27.0814 26.2091C26.0578 25.2443 24.7605 24.6054 23.3523 24.3772C23.1502 24.3446 22.9677 24.5011 22.9677 24.7032C22.9677 24.8661 22.9677 25.0487 22.9677 25.2117C22.9677 25.3616 22.8503 25.5376 22.7004 25.5376C22.5896 25.5376 22.4787 25.5376 22.3679 25.5376C21.9767 25.5311 21.905 25.0487 21.9833 24.7618C22.8177 21.7564 23.0264 19.931 23.0133 18.6076C23.0003 17.1994 22.9677 15.7912 22.3288 13.9332C21.716 12.1469 21.1553 10.3932 18.1955 7.71374C17.9934 7.53119 17.7913 7.44644 17.524 7.42688C17.2306 7.40733 16.996 7.39429 16.6961 7.39429C15.4704 7.39429 14.2839 7.57683 13.1626 7.90932C12.7453 8.03318 12.804 8.32655 13.0387 8.52865C14.1535 9.487 15.666 10.9213 16.7156 12.7141C16.0572 12.7793 15.5487 12.4077 15.1249 12.0035C13.7298 10.6735 12.2759 9.72821 11.122 9.07628C10.9199 8.96545 10.7243 8.9133 10.5222 9.03064C9.25096 9.76733 8.39041 10.4649 7.37991 11.6384C7.21041 11.8405 7.32124 11.9904 7.49074 12.0817C8.59251 12.6684 10.3267 13.7767 11.9109 15.224C11.5849 15.4978 11.0764 15.4066 10.3332 15.0154C8.90544 14.2657 7.53638 13.8354 6.48676 13.5681C6.2651 13.5094 6.02389 13.5746 5.90654 13.7767C5.23505 14.9437 4.77217 16.3323 4.55703 17.747C4.51792 18.0208 4.70046 18.2555 4.96775 18.3077C7.40599 18.738 11.7609 19.8854 12.4846 24.8922C12.5498 25.329 12.1456 25.7202 11.624 25.4724C10.8873 25.1269 10.1572 24.7879 9.42699 24.4424C9.34876 24.4098 9.264 24.3772 9.17925 24.3772C7.99925 24.3772 6.904 24.3772 5.724 24.3772C5.23505 24.3772 5.03295 24.8466 5.35239 25.2117C6.18035 26.17 6.94311 27.2001 7.59505 28.2953C7.6472 28.3866 7.7124 28.4257 7.82323 28.4257C8.32522 28.4257 8.82721 28.4257 9.3292 28.4257C9.43351 28.4257 9.51826 28.3996 9.60953 28.3475C10.0854 28.0671 10.5614 27.7933 11.0307 27.513C11.122 27.4608 11.2068 27.4608 11.3111 27.4608C14.9489 27.4608 18.854 27.4608 22.6873 27.4608C22.8373 27.4608 22.9612 27.5586 22.9612 27.7151C22.9612 27.9042 22.9612 28.0867 22.9612 28.2758C22.9612 28.4779 23.1437 28.6343 23.3458 28.6017C24.754 28.3801 26.0513 27.7347 27.0749 26.7698C27.2444 26.6199 27.2444 26.3591 27.0814 26.2091ZM18.854 24.1164C18.0065 24.1164 17.3219 23.4319 17.3219 22.5844C17.3219 21.7369 18.0065 21.0523 18.854 21.0523C19.7015 21.0523 20.386 21.7369 20.386 22.5844C20.386 23.4319 19.695 24.1164 18.854 24.1164Z" fill="white"/>
<path d="M44.671 27.9562C47.1223 28.067 51.1121 28.1843 53.42 28.1843C63.4924 28.1843 64.6985 28.1648 64.6985 22.6885C64.6985 18.3727 63.4272 18.0207 58.0944 17.8642L51.901 17.6817C49.0585 17.5904 49.0129 17.2905 49.0129 16.0192C49.0129 14.7023 49.3584 14.7023 56.1711 14.7023C57.462 14.7023 61.5757 14.774 63.7466 14.8197C63.9748 14.8197 64.0922 14.7023 64.0922 14.4742V11.6578C64.0922 11.4296 63.9748 11.3123 63.7662 11.2927C61.6148 11.1754 58.1074 11.058 55.5909 11.058C45.7011 11.058 44.1104 11.2406 44.1104 16.3452C44.1104 20.7132 45.0817 21.2869 51.4055 21.502L57.0904 21.6846C59.7503 21.7758 59.7959 22.1018 59.7959 23.0927C59.7959 24.4553 59.6786 24.527 53.3939 24.527C50.4602 24.527 47.4352 24.4096 44.6841 24.3184C44.4559 24.2988 44.3385 24.4096 44.3385 24.6443V27.6041C44.345 27.8193 44.4624 27.9366 44.671 27.9562ZM151.282 21.8345H143.889L147.286 15.1065H147.885L151.282 21.8345ZM129.696 19.5006V19.7353C129.696 24.012 129.344 24.1489 123.803 24.1489H119.226V15.087H123.803C129.351 15.087 129.696 15.2304 129.696 19.5006ZM105.712 19.5006V19.7353C105.712 24.4031 105.529 24.4748 100.079 24.4748C94.6288 24.4748 94.4397 24.4031 94.4397 19.7353V19.5006C94.4397 14.8327 94.6288 14.7675 100.079 14.7675C105.529 14.7675 105.712 14.8327 105.712 19.5006ZM159.483 27.5194L151.51 11.56C151.438 11.3775 151.301 11.3057 151.119 11.3057H144.052C143.863 11.3057 143.726 11.3775 143.661 11.56L135.688 27.5194C135.57 27.7736 135.668 27.9366 135.942 27.9366H140.538C140.721 27.9366 140.864 27.8649 140.929 27.6824L142.129 25.3289H153.036L154.235 27.6824C154.307 27.8714 154.444 27.9366 154.633 27.9366H159.229C159.509 27.9366 159.601 27.7736 159.483 27.5194ZM123.783 11.2992H114.565C114.337 11.2992 114.213 11.4166 114.213 11.6448V27.5846C114.213 27.8127 114.33 27.9301 114.565 27.9301H123.783C133.647 27.9301 134.944 27.4411 134.944 19.6831V19.5462C134.938 11.7882 133.647 11.2992 123.783 11.2992ZM88.0964 27.5194L78.9041 18.5357L87.5423 11.723C87.7965 11.5404 87.7052 11.3057 87.3793 11.3057H81.7466C81.5836 11.3057 81.4662 11.3514 81.3293 11.4687L72.5086 18.5161V11.6448C72.5086 11.4166 72.3913 11.2992 72.1631 11.2992H67.8669C67.6322 11.2992 67.5213 11.4166 67.5213 11.6448V27.5846C67.5213 27.8127 67.6387 27.9301 67.8669 27.9301H72.1631C72.3913 27.9301 72.5086 27.8127 72.5086 27.5846V23.5686L75.1164 21.5085L81.4467 27.7475C81.5836 27.8845 81.7009 27.9301 81.8835 27.9301H87.9399C88.2333 27.9366 88.3246 27.728 88.0964 27.5194ZM89.0743 19.5006V19.7353C89.0743 27.7932 90.3977 28.2821 100.072 28.2821C109.754 28.2821 111.071 27.7932 111.071 19.7092V19.5006C111.071 11.4427 109.754 10.9537 100.072 10.9537C90.3977 10.9537 89.0743 11.4427 89.0743 19.5006ZM50.1407 7.44629L52.2465 9.84541C52.3638 9.98232 52.4812 10.028 52.6637 10.028H57.0773C57.2664 10.028 57.3772 9.98232 57.4946 9.84541L59.6003 7.44629C59.7829 7.23767 59.7177 7.02905 59.4178 7.02905H56.4384C56.2494 7.02905 56.132 7.10077 56.0212 7.23767L55.1215 8.53502H54.6326L53.7264 7.23767C53.609 7.10077 53.4982 7.02905 53.2896 7.02905H50.3298C50.0234 7.02905 49.9582 7.23767 50.1407 7.44629Z" fill="white"/>
</g>
</g>
<defs>
<clipPath id="clip0_3730_7955">
<rect width="159.535" height="33.2617" fill="white" transform="translate(0 3)"/>
</clipPath>
</defs>
</svg>
