<svg width="66" height="20" viewBox="0 0 66 20" fill="none" xmlns="http://www.w3.org/2000/svg"><path d="M17.198.742h3.031v18.323h-3.03V.742zM30.77 13.258c0 2.84-2.371 3.097-3.162 3.097-1.845 0-2.108-1.677-2.108-2.58V6.677h-3.03v6.968c0 1.677.526 3.225 1.58 4.128.923.904 2.109 1.29 3.558 1.29 1.054 0 2.372-.257 3.162-1.031v1.032h3.031V6.678h-3.03v6.58zM39.73 2.162H36.7v4.516h-2.24v2.838h2.24v9.549h3.03V9.516h2.24V6.678h-2.24V2.162zM51.458 15.323c-.66.516-1.581.903-2.504.903-2.108 0-3.558-1.548-3.558-3.613 0-2.064 1.45-3.484 3.558-3.484.922 0 1.845.258 2.504.903l.395.387 2.108-1.935-.527-.387a6.838 6.838 0 00-4.48-1.678c-3.69 0-6.456 2.71-6.456 6.323 0 3.613 2.767 6.323 6.456 6.323a6.838 6.838 0 004.48-1.678l.527-.387-2.108-2.064-.395.387zM64.634 7.71c-.922-.903-1.844-1.29-3.294-1.29-1.054 0-2.108.258-2.899 1.032V.742h-3.03v18.323h3.03v-6.839c0-2.839 1.977-3.097 2.767-3.097 1.845 0 1.714 1.678 1.714 2.58v7.227h3.03v-7.097c0-1.678-.395-3.226-1.318-4.13z" fill="#fff"/><path d="M48.822 14.807c1.165 0 2.109-.925 2.109-2.065s-.944-2.064-2.109-2.064c-1.164 0-2.108.924-2.108 2.064 0 1.14.944 2.065 2.108 2.065z" fill="#EF4335"/><path d="M12.982 14.549c-1.054 1.032-2.635 1.677-4.348 1.677-3.295 0-5.666-2.58-5.666-6.064s2.371-6.065 5.797-6.065c1.582 0 3.163.645 4.349 1.807l.395.387 1.976-1.936-.395-.387a8.97 8.97 0 00-6.325-2.58C3.758 1.257.07 5.128.07 10.161c0 5.032 3.69 8.903 8.565 8.903 2.371 0 4.743-.903 6.324-2.58l.396-.388-1.977-1.935-.395.387z" fill="#fff"/></svg>