<svg width="113" height="40" viewBox="0 0 113 40" fill="none" xmlns="http://www.w3.org/2000/svg">
<g opacity="0.9" clip-path="url(#clip0_4072_16149)">
<path d="M59.2354 15.1677H64.1754L59.6661 29.6846H54.7246L59.2354 15.1677Z" fill="white"/>
<path d="M64.9939 15.1677H69.9355L65.4247 29.6846H60.4832L64.9939 15.1677Z" fill="white"/>
<path d="M54.483 15.1677H50.2691L47.9999 22.4138L46.0814 15.1677H41.083L42.023 18.2292C40.6322 16.16 38.1922 14.78 35.2291 14.78C31.3937 14.78 28.4153 17.1277 27.4691 20.2692V20.1554C27.4691 16.8323 25.6045 14.78 22.4983 14.78C20.4183 14.78 19.0676 15.8877 18.1214 17.1031V10L12.9891 10.5185V24.4246C12.6322 22.1215 10.4968 21.22 7.85988 20.4815C6.34604 20.0215 5.48296 19.7523 5.48296 19.1846V19.1308C5.48296 18.6985 5.88757 18.4015 6.67219 18.4015C7.83373 18.4015 9.48142 18.9154 10.9953 19.78L12.7507 16.5385C11.0753 15.4585 8.85988 14.8369 6.72604 14.8369C3.34911 14.8369 0.862958 16.5662 0.862958 19.6738V19.7277C0.862958 22.6462 3.15988 23.6185 6.05065 24.3754C7.59065 24.8077 8.42757 25.0508 8.42757 25.6446V25.6985C8.42757 26.2123 7.99527 26.4815 7.10296 26.4815C5.59065 26.4815 3.77988 25.9138 2.1045 24.8062L0.186035 27.8862C2.18604 29.3446 4.6168 30.0754 7.07527 30.0754C10.3353 30.0754 12.6199 28.6708 12.9876 25.9738V29.6877H18.1199V21.8092C18.1199 20.1877 19.0383 19.3231 20.2814 19.3231C21.5245 19.3231 22.3614 20.1877 22.3614 21.8092V29.6877H27.4676V24.6446C28.4091 27.7692 31.363 30.0754 35.1737 30.0754C39.8737 30.0754 43.2783 26.5908 43.2783 22.4308V22.3769C43.2783 22.36 43.2783 22.3431 43.2783 22.3246L45.5399 29.6877H49.9168L52.3476 22.1415L54.7245 29.6877L56.9091 22.6554L54.483 15.1708V15.1677ZM38.3106 22.48C38.3106 24.2354 37.0953 25.7215 35.2307 25.7215C33.366 25.7215 32.1245 24.2092 32.1245 22.4262V22.3723C32.1245 20.5892 33.3137 19.1031 35.1768 19.1031C37.0399 19.1031 38.3106 20.6154 38.3106 22.4262V22.48Z" fill="white"/>
<path d="M113.066 15.1676H106.498L103.786 18.5199L101.074 15.1676H92.5293V16.8953C91.4923 15.7876 90.3016 14.7876 88.0846 14.7876C84.6262 14.7876 81.6416 17.6784 81.6416 22.4338V22.4876C81.6416 22.8507 81.6616 23.2014 81.6969 23.543L79.1246 15.1691H74.7477L72.3169 22.7414L69.9354 15.1691L67.7954 22.0584L70.1831 29.6845H74.3969L76.6662 22.4384L78.5846 29.6845H83.5831L82.7 26.8107C83.8708 28.8753 85.8892 30.0522 88.1123 30.0522C90.3354 30.0522 91.4923 28.9984 92.5293 27.783V29.6845H101.142L103.786 26.4168L106.431 29.6845H112.998L107.071 22.4691L113.068 15.1676H113.066ZM92.7877 22.4338C92.7877 24.3784 91.3523 25.7568 89.6769 25.7568C88.0016 25.7568 86.5662 24.3784 86.5662 22.4338V22.3799C86.5662 20.4353 88.0293 19.0568 89.6769 19.0568C91.3246 19.0568 92.7877 20.4614 92.7877 22.3799V22.4338ZM96.9354 26.5968V18.3845L100.788 22.4938L96.9354 26.5968Z" fill="white"/>
</g>
<defs>
<clipPath id="clip0_4072_16149">
<rect width="113" height="40" fill="white"/>
</clipPath>
</defs>
</svg>
