<svg width="133" height="18" viewBox="0 0 133 18" fill="none" xmlns="http://www.w3.org/2000/svg">
<path d="M11.4454 12.0906C11.33 12.8373 11.0798 13.5577 10.7065 14.2179C10.3874 14.7919 9.96133 15.3017 9.45039 15.7208C8.9546 16.1293 8.37866 16.4332 7.75833 16.6138C7.10469 16.8108 6.42486 16.9111 5.74117 16.9115C4.93432 16.924 4.13304 16.7784 3.38411 16.4831C2.69132 16.1959 2.06345 15.7764 1.53689 15.2489C1.16169 14.8938 0.853924 14.4758 0.628056 14.0146C0.415869 13.5507 0.26203 13.063 0.169944 12.5625C0.0753715 12.0615 0.018569 11.5543 0 11.0451C0 10.5006 0 9.9633 0 9.41877C0 8.87424 0 8.32245 0 7.7997C0.00945485 7.28986 0.0663399 6.78194 0.169944 6.28228C0.259106 5.78106 0.413056 5.29308 0.628056 4.8302C0.848504 4.36368 1.15688 3.94241 1.53689 3.58867C2.06345 3.06119 2.69132 2.64166 3.38411 2.3544C4.13304 2.05917 4.93432 1.91355 5.74117 1.92603C6.42553 1.91724 7.10679 2.01777 7.75833 2.22371C8.37866 2.40433 8.9546 2.70829 9.45039 3.11674C9.96661 3.5374 10.3977 4.04969 10.7213 4.6269C11.0946 5.28709 11.3448 6.00751 11.4602 6.7542H7.68444C7.57721 6.34626 7.37483 5.96844 7.09333 5.65062C6.92101 5.47935 6.71272 5.34709 6.483 5.26307C6.25329 5.17906 6.00769 5.1453 5.76333 5.16417C5.46379 5.15668 5.1662 5.21368 4.89144 5.33116C4.66076 5.43285 4.45811 5.58718 4.30033 5.78131C4.21308 5.8979 4.13644 6.0218 4.07128 6.15159C3.97955 6.33872 3.92202 6.54024 3.90133 6.74694C3.83617 7.08466 3.7991 7.42703 3.7905 7.77066C3.7905 8.19902 3.75356 8.74356 3.75356 9.43329C3.75356 10.123 3.75356 10.6676 3.7905 11.0959C3.80861 11.4389 3.84561 11.7806 3.90133 12.1196C3.94022 12.3226 3.99708 12.5218 4.07128 12.715C4.14517 12.8457 4.22644 12.9764 4.30033 13.0853C4.45483 13.2826 4.65839 13.4377 4.89144 13.5354C5.1662 13.6529 5.46379 13.7099 5.76333 13.7024C6.00769 13.7213 6.25329 13.6875 6.483 13.6035C6.71272 13.5195 6.92101 13.3872 7.09333 13.216C7.37483 12.8981 7.57721 12.5203 7.68444 12.1124H11.4528L11.4454 12.0906Z" fill="white"/>
<path d="M11.4453 16.389V13.6373L17.2973 5.09907H11.6965V1.92627H21.8045V4.67796L15.9304 13.2162H21.8045V16.389H11.4453Z" fill="white"/>
<path d="M22.3516 16.3672V1.92627H32.7034V5.09907H26.0977V7.51678H31.7428V10.6896H26.0977V13.2162H32.7034V16.389H22.3516V16.3672Z" fill="white"/>
<path d="M45.2427 12.0909C45.1273 12.8376 44.8771 13.5581 44.5038 14.2182C44.1847 14.7922 43.7586 15.302 43.2477 15.7211C42.7519 16.1296 42.176 16.4336 41.5556 16.6142C40.902 16.8111 40.2222 16.9115 39.5385 16.9118C38.7316 16.9243 37.9303 16.7787 37.1814 16.4835C36.4886 16.1962 35.8607 15.7767 35.3342 15.2492C34.9549 14.8904 34.6445 14.4674 34.418 14.0004C34.2058 13.5365 34.0519 13.0489 33.9599 12.5483C33.8688 12.0374 33.8169 11.5205 33.8047 11.0019C33.8047 10.4573 33.8047 9.92007 33.8047 9.37554C33.8047 8.83101 33.8047 8.27196 33.8047 7.74921C33.8221 7.25595 33.8839 6.76516 33.9894 6.28261C34.0786 5.78139 34.2325 5.29342 34.4475 4.83053C34.6694 4.36082 34.9803 3.93699 35.3637 3.58174C35.8903 3.05427 36.5182 2.63474 37.211 2.34747C37.9512 2.0585 38.742 1.91541 39.5385 1.92637C40.2228 1.91757 40.9041 2.01811 41.5556 2.22404C42.176 2.40466 42.7519 2.70862 43.2477 3.11707C43.7639 3.53773 44.195 4.05002 44.5186 4.62724C44.8919 5.28742 45.1421 6.00784 45.2575 6.75454H41.4891C41.3819 6.3466 41.1795 5.96877 40.898 5.65095C40.7257 5.47968 40.5174 5.34742 40.2877 5.26341C40.058 5.17939 39.8124 5.14564 39.568 5.16451C39.2685 5.15702 38.9709 5.21401 38.6961 5.3315C38.4654 5.43319 38.2628 5.58751 38.105 5.78164C38.0178 5.89823 37.9411 6.02214 37.876 6.15192C37.7842 6.33905 37.7267 6.54057 37.706 6.74728C37.6409 7.08499 37.6038 7.42736 37.5952 7.77099C37.5952 8.19936 37.5582 8.74389 37.5582 9.43363C37.5582 10.1234 37.5582 10.6679 37.5952 11.0963C37.6057 11.4412 37.6353 11.7854 37.6839 12.1272C37.7227 12.3302 37.7796 12.5294 37.8538 12.7226C37.9277 12.8533 38.009 12.984 38.0829 13.0929C38.2374 13.2902 38.4409 13.4453 38.674 13.543C38.9487 13.6605 39.2463 13.7175 39.5459 13.71C39.7902 13.7289 40.0358 13.6951 40.2655 13.6111C40.4952 13.5271 40.7035 13.3948 40.8759 13.2236C41.1574 12.9057 41.3597 12.5279 41.467 12.12H45.2353L45.2427 12.0909Z" fill="white"/>
<path d="M53.4957 16.389V10.6605H49.5278V16.389H45.7891V1.92627H49.5278V7.48774H53.4957V1.92627H57.2344V16.389H53.4957Z" fill="white"/>
<path d="M70.3091 12.0907C70.1937 12.8374 69.9435 13.5578 69.5702 14.218C69.2512 14.7919 68.825 15.3018 68.3141 15.7209C67.8183 16.1293 67.2424 16.4333 66.622 16.6139C65.9684 16.8109 65.2886 16.9112 64.6049 16.9116C63.798 16.9241 62.9967 16.7784 62.2478 16.4832C61.555 16.1959 60.9272 15.7764 60.4006 15.2489C60.0213 14.8901 59.7109 14.4671 59.4844 14.0001C59.2722 13.5362 59.1183 13.0486 59.0263 12.5481C58.9352 12.0371 58.8833 11.5202 58.8711 11.0016C58.8711 10.4571 58.8711 9.9198 58.8711 9.37527C58.8711 8.83074 58.8711 8.27169 58.8711 7.74894C58.8812 7.25632 58.9356 6.76555 59.0337 6.28234C59.1228 5.78112 59.2768 5.29314 59.4918 4.83026C59.7136 4.36055 60.0246 3.93672 60.408 3.58147C60.9345 3.05399 61.5624 2.63446 62.2552 2.3472C63.0023 2.0554 63.801 1.91227 64.6049 1.92609C65.2892 1.9173 65.9705 2.01783 66.622 2.22377C67.2424 2.40439 67.8183 2.70835 68.3141 3.1168C68.8303 3.53746 69.2614 4.04975 69.585 4.62696C69.9583 5.28715 70.2085 6.00757 70.3239 6.75426H66.5555C66.4483 6.34632 66.2459 5.9685 65.9644 5.65068C65.7921 5.47941 65.5838 5.34715 65.3541 5.26313C65.1244 5.17912 64.8788 5.14536 64.6344 5.16423C64.3349 5.15674 64.0373 5.21374 63.7625 5.33122C63.5319 5.43291 63.3292 5.58724 63.1714 5.78137C63.0842 5.89796 63.0075 6.02186 62.9424 6.15165C62.8506 6.33878 62.7931 6.5403 62.7724 6.747C62.7073 7.08472 62.6702 7.42709 62.6616 7.77072C62.6616 8.19908 62.6247 8.74362 62.6247 9.43335C62.6247 10.1231 62.6246 10.6676 62.6616 11.096C62.6797 11.4389 62.7167 11.7807 62.7724 12.1197C62.8113 12.3226 62.8682 12.5219 62.9424 12.7151C63.0163 12.8457 63.0975 12.9764 63.1714 13.0853C63.3259 13.2827 63.5295 13.4377 63.7625 13.5355C64.0373 13.653 64.3349 13.71 64.6344 13.7025C64.8788 13.7213 65.1244 13.6876 65.3541 13.6036C65.5838 13.5196 65.7921 13.3873 65.9644 13.216C66.2459 12.8982 66.4483 12.5204 66.5555 12.1124H70.3239L70.3091 12.0907ZM78.5108 16.3525L75.836 10.9871H74.5725V16.3525H70.878V1.92609H76.8409C77.5999 1.90693 78.3548 2.04291 79.0575 2.32542C79.6675 2.56648 80.2226 2.92434 80.6905 3.37817C81.1157 3.79252 81.4524 4.28622 81.6806 4.83026C81.9056 5.3818 82.0186 5.9713 82.0131 6.56549C82.0174 7.02294 81.9398 7.47758 81.784 7.90867C81.6378 8.29341 81.4443 8.65914 81.2077 8.99773C80.9814 9.30136 80.7184 9.57686 80.4245 9.81816C80.1487 10.0253 79.8544 10.2076 79.5452 10.3627L82.8333 16.3816H78.496L78.5108 16.3525ZM78.3186 6.54371C78.319 6.1638 78.1678 5.79889 77.8975 5.52725C77.7431 5.37518 77.5584 5.25606 77.3549 5.17736C77.1515 5.09865 76.9337 5.06205 76.7153 5.06985H74.6242V7.97401H76.7226C76.9419 7.98896 77.1618 7.95566 77.3663 7.87653C77.5709 7.7974 77.7548 7.67444 77.9049 7.51661C78.0367 7.39 78.1413 7.23862 78.2124 7.07148C78.2835 6.90434 78.3196 6.72486 78.3186 6.54371ZM94.8328 11.5752C94.8569 12.6632 94.5285 13.7305 93.895 14.6232C93.2615 15.5158 92.3557 16.1875 91.3083 16.5413C90.5966 16.7899 89.847 16.9176 89.0917 16.9188C88.3359 16.9226 87.5854 16.7948 86.875 16.5413C86.2045 16.309 85.5888 15.946 85.0647 15.474C84.5164 14.9808 84.0828 14.3772 83.7933 13.7043C83.5039 13.0315 83.3654 12.3053 83.3874 11.5752V1.92609H87.0819V11.488C87.0378 12.0706 87.2229 12.6475 87.5991 13.0999C87.7891 13.2932 88.0198 13.4435 88.275 13.54C88.5303 13.6366 88.804 13.6772 89.0769 13.6589C89.349 13.6698 89.6205 13.6258 89.8746 13.5296C90.1288 13.4335 90.3602 13.2872 90.5546 13.0999C90.941 12.6524 91.1322 12.0732 91.0866 11.488V1.92609H94.7811V11.5824L94.8328 11.5752Z" fill="white"/>
<path d="M104.786 16.389L100.086 9.11407V16.389H96.4805V1.92627H99.6281L104.327 9.2012V1.92627H107.933V16.389H104.786Z" fill="white"/>
<path d="M121.004 12.0908C120.889 12.8375 120.639 13.5579 120.266 14.2181C119.946 14.792 119.52 15.3019 119.009 15.721C118.514 16.1294 117.938 16.4334 117.317 16.614C116.664 16.811 115.984 16.9113 115.3 16.9117C114.493 16.9242 113.692 16.7786 112.943 16.4833C112.25 16.1961 111.622 15.7765 111.096 15.2491C110.717 14.8903 110.406 14.4672 110.18 14.0003C109.967 13.5363 109.814 13.0487 109.722 12.5482C109.631 12.0372 109.579 11.5203 109.566 11.0017C109.566 10.4572 109.566 9.91992 109.566 9.37539C109.566 8.83086 109.566 8.2718 109.566 7.74906C109.577 7.25644 109.631 6.76566 109.729 6.28245C109.818 5.78123 109.972 5.29326 110.187 4.83037C110.409 4.36066 110.72 3.93683 111.103 3.58158C111.63 3.05411 112.258 2.63458 112.951 2.34731C113.698 2.05551 114.496 1.91238 115.3 1.92621C115.985 1.91741 116.666 2.01795 117.317 2.22388C117.938 2.4045 118.514 2.70847 119.009 3.11691C119.526 3.53758 119.957 4.04986 120.28 4.62708C120.654 5.28726 120.904 6.00769 121.019 6.75438H117.251C117.144 6.34644 116.941 5.96861 116.66 5.6508C116.487 5.47952 116.279 5.34726 116.049 5.26325C115.82 5.17923 115.574 5.14548 115.33 5.16435C115.03 5.15686 114.733 5.21385 114.458 5.33134C114.227 5.43303 114.025 5.58735 113.867 5.78148C113.779 5.89807 113.703 6.02198 113.638 6.15176C113.546 6.33889 113.488 6.54041 113.468 6.74712C113.403 7.08483 113.366 7.42721 113.357 7.77084C113.357 8.1992 113.32 8.74373 113.32 9.43347C113.32 10.1232 113.32 10.6677 113.357 11.0961C113.375 11.4391 113.412 11.7808 113.468 12.1198C113.507 12.3228 113.563 12.522 113.638 12.7152C113.712 12.8459 113.793 12.9765 113.867 13.0855C114.021 13.2828 114.225 13.4378 114.458 13.5356C114.733 13.6531 115.03 13.7101 115.33 13.7026C115.574 13.7215 115.82 13.6877 116.049 13.6037C116.279 13.5197 116.487 13.3874 116.66 13.2161C116.941 12.8983 117.144 12.5205 117.251 12.1126H121.019L121.004 12.0908Z" fill="white"/>
<path d="M129.257 16.389V10.6605H125.29V16.389H121.551V1.92627H125.29V7.48774H129.257V1.92627H132.996V16.389H129.257Z" fill="white"/>
</svg>
