<svg width="91" height="20" viewBox="0 0 91 20" fill="none" xmlns="http://www.w3.org/2000/svg">
<path d="M84.668 15.6372C84.668 14.4058 85.7088 13.4067 86.9902 13.4067C88.2723 13.4067 89.3119 14.4058 89.3119 15.6372C89.3119 16.8686 88.2723 17.867 86.9902 17.867C85.7088 17.867 84.668 16.8686 84.668 15.6372Z" fill="#86BC24"/>
<path d="M10.6044 9.73033C10.6044 8.31759 10.3202 7.26949 9.75172 6.58667C9.18254 5.9045 8.32035 5.56374 7.16124 5.56374H5.92821V14.2029H6.87159C8.15907 14.2029 9.10256 13.8363 9.70329 13.1005C10.3033 12.3661 10.6044 11.2425 10.6044 9.73033M15.0017 9.5832C15.0017 12.157 14.2814 14.1402 12.8407 15.5323C11.4 16.9251 9.37471 17.6214 6.7641 17.6214H1.69141V2.19873H7.11819C9.63538 2.19873 11.5787 2.83185 12.9482 4.09744C14.317 5.36368 15.0017 7.19141 15.0017 9.5832" fill="white"/>
<path d="M29.0547 17.621H33.0912V2.13379H29.0547V17.621Z" fill="white"/>
<path d="M38.7592 11.8445C38.7592 12.8319 38.8935 13.5851 39.1617 14.1027C39.4305 14.6209 39.8806 14.8797 40.5136 14.8797C41.1399 14.8797 41.5827 14.6209 41.8407 14.1027C42.0988 13.5851 42.2271 12.8319 42.2271 11.8445C42.2271 10.8622 42.0967 10.1213 41.8354 9.62114C41.5733 9.11968 41.1265 8.86861 40.4929 8.86861C39.8733 8.86861 39.4305 9.1184 39.1617 9.61534C38.8935 10.1129 38.7592 10.8558 38.7592 11.8445ZM46.3356 11.8445C46.3356 13.7258 45.8221 15.1934 44.7927 16.2454C43.7639 17.298 42.3239 17.8246 40.4727 17.8246C38.6973 17.8246 37.2841 17.2863 36.2352 16.2098C35.185 15.1333 34.6602 13.6787 34.6602 11.8445C34.6602 9.96901 35.1743 8.51172 36.2037 7.47266C37.2331 6.43359 38.6765 5.91406 40.5351 5.91406C41.6836 5.91406 42.6996 6.1548 43.5799 6.63561C44.4608 7.11642 45.1408 7.80505 45.6186 8.70213C46.097 9.59792 46.3356 10.646 46.3356 11.8445Z" fill="white"/>
<path d="M47.9375 17.6211H51.9747V11.694V6.11719H47.9375V17.6211Z" fill="white"/>
<path d="M47.9375 4.7258H51.9747V2.1333H47.9375V4.7258Z" fill="white"/>
<path d="M60.1572 14.6871C60.7022 14.6871 61.3512 14.5542 62.1085 14.2902V17.1847C61.5642 17.4145 61.0469 17.5791 60.555 17.6765C60.0631 17.7753 59.4859 17.8243 58.8253 17.8243C57.47 17.8243 56.4929 17.4971 55.8928 16.844C55.2955 16.1909 54.9958 15.1879 54.9958 13.8346V9.0923H53.582V6.11837H54.9958V3.18058L59.0639 2.50098V6.11837H61.6396V9.0923H59.0639V13.57C59.0639 14.3147 59.4288 14.6871 60.1572 14.6871" fill="white"/>
<path d="M69.4977 14.6871C70.0427 14.6871 70.6919 14.5542 71.4492 14.2902V17.1847C70.9056 17.4145 70.3874 17.5791 69.8955 17.6765C69.403 17.7753 68.8278 17.8243 68.1658 17.8243C66.8105 17.8243 65.8335 17.4971 65.2348 16.844C64.6361 16.1909 64.3364 15.1879 64.3364 13.8346V9.0923H62.9219V6.11837H64.3364V3.13606L68.4038 2.50098V6.11837H70.9807V9.0923H68.4038V13.57C68.4038 14.3147 68.7686 14.6871 69.4977 14.6871" fill="white"/>
<path d="M76.5436 10.4427C76.5987 9.81282 76.7863 9.35137 77.1061 9.05643C77.4274 8.76213 77.8238 8.615 78.2982 8.615C78.8156 8.615 79.2268 8.7802 79.5319 9.11322C79.839 9.4443 79.9989 9.88768 80.0117 10.4427H76.5436V10.4427ZM82.2366 7.27003C81.277 6.36649 79.9156 5.91406 78.1544 5.91406C76.3031 5.91406 74.8786 6.43359 73.88 7.47266C72.8821 8.51172 72.3828 10.0026 72.3828 11.9452C72.3828 13.8265 72.9225 15.2773 73.9989 16.2957C75.0761 17.3141 76.5886 17.824 78.5367 17.824C79.4721 17.824 80.2772 17.7627 80.9518 17.6407C81.6224 17.52 82.2715 17.3018 82.9012 16.9869L82.2809 14.3944C81.8233 14.5738 81.3879 14.7119 80.9766 14.8029C80.3826 14.9352 79.7309 15.0017 79.0212 15.0017C78.2432 15.0017 77.6289 14.819 77.1787 14.4538C76.7285 14.0878 76.4886 13.5832 76.4611 12.9404H83.6766V11.1739C83.6766 9.47464 83.1968 8.17292 82.2366 7.27003Z" fill="white"/>
<path d="M20.36 10.4427C20.4151 9.81282 20.6026 9.35137 20.9224 9.05643C21.243 8.76213 21.6402 8.615 22.1153 8.615C22.6313 8.615 23.0425 8.7802 23.3483 9.11322C23.6554 9.4443 23.8147 9.88768 23.8288 10.4427H20.36V10.4427ZM26.0536 7.27003C25.0934 6.36649 23.7326 5.91406 21.9708 5.91406C20.1188 5.91406 18.6949 6.43359 17.697 7.47266C16.6991 8.51172 16.1992 10.0026 16.1992 11.9452C16.1992 13.8265 16.7382 15.2773 17.816 16.2957C18.8925 17.3141 20.405 17.824 22.3531 17.824C23.2885 17.824 24.0934 17.7627 24.7681 17.6407C25.4387 17.52 26.0879 17.3018 26.7182 16.9869L26.0973 14.3944C25.6397 14.5738 25.2042 14.7119 24.7937 14.8029C24.1983 14.9352 23.5472 15.0017 22.8375 15.0017C22.0601 15.0017 21.4453 14.819 20.9951 14.4538C20.5442 14.0878 20.305 13.5832 20.2775 12.9404H27.493V11.1739C27.493 9.47464 27.0132 8.17292 26.0536 7.27003" fill="white"/>
</svg>
